<?xml version="1.0" encoding="utf-8" standalone="no"?>
<!DOCTYPE svg PUBLIC "-//W3C//DTD SVG 1.1//EN"
  "http://www.w3.org/Graphics/SVG/1.1/DTD/svg11.dtd">
<svg xmlns:xlink="http://www.w3.org/1999/xlink" width="460.8pt" height="345.6pt" viewBox="0 0 460.8 345.6" xmlns="http://www.w3.org/2000/svg" version="1.1">
 <metadata>
  <rdf:RDF xmlns:dc="http://purl.org/dc/elements/1.1/" xmlns:cc="http://creativecommons.org/ns#" xmlns:rdf="http://www.w3.org/1999/02/22-rdf-syntax-ns#">
   <cc:Work>
    <dc:type rdf:resource="http://purl.org/dc/dcmitype/StillImage"/>
    <dc:date>2025-10-05T16:57:25.155551</dc:date>
    <dc:format>image/svg+xml</dc:format>
    <dc:creator>
     <cc:Agent>
      <dc:title>Matplotlib v3.5.3, https://matplotlib.org/</dc:title>
     </cc:Agent>
    </dc:creator>
   </cc:Work>
  </rdf:RDF>
 </metadata>
 <defs>
  <style type="text/css">*{stroke-linejoin: round; stroke-linecap: butt}</style>
 </defs>
 <g id="figure_1">
  <g id="patch_1">
   <path d="M 0 345.6 
L 460.8 345.6 
L 460.8 0 
L 0 0 
z
" style="fill: #ffffff"/>
  </g>
  <g id="axes_1">
   <g id="patch_2">
    <path d="M 57.6 307.584 
L 414.72 307.584 
L 414.72 41.472 
L 57.6 41.472 
z
" style="fill: #ffffff"/>
   </g>
   <g id="axes_2">
    <g id="patch_3">
     <path d="M 414.72 307.584 
L 414.72 307.584 
L 414.72 41.472 
L 414.72 41.472 
z
" style="fill: #ffffff"/>
    </g>
    <g id="matplotlib.axis_1"/>
    <g id="matplotlib.axis_2">
     <g id="ytick_1">
      <g id="line2d_1">
       <defs>
        <path id="md1c06b5836" d="M 0 0 
L 3.5 0 
" style="stroke: #000000; stroke-width: 0.8"/>
       </defs>
       <g>
        <use xlink:href="#md1c06b5836" x="414.72" y="48.925475" style="stroke: #000000; stroke-width: 0.8"/>
       </g>
      </g>
      <g id="text_1">
       <!-- 50 -->
       <g transform="translate(421.72 52.724693)scale(0.1 -0.1)">
        <defs>
         <path id="DejaVuSans-35" d="M 691 4666 
L 3169 4666 
L 3169 4134 
L 1269 4134 
L 1269 2991 
Q 1406 3038 1543 3061 
Q 1681 3084 1819 3084 
Q 2600 3084 3056 2656 
Q 3513 2228 3513 1497 
Q 3513 744 3044 326 
Q 2575 -91 1722 -91 
Q 1428 -91 1123 -41 
Q 819 9 494 109 
L 494 744 
Q 775 591 1075 516 
Q 1375 441 1709 441 
Q 2250 441 2565 725 
Q 2881 1009 2881 1497 
Q 2881 1984 2565 2268 
Q 2250 2553 1709 2553 
Q 1456 2553 1204 2497 
Q 953 2441 691 2322 
L 691 4666 
z
" transform="scale(0.015625)"/>
         <path id="DejaVuSans-30" d="M 2034 4250 
Q 1547 4250 1301 3770 
Q 1056 3291 1056 2328 
Q 1056 1369 1301 889 
Q 1547 409 2034 409 
Q 2525 409 2770 889 
Q 3016 1369 3016 2328 
Q 3016 3291 2770 3770 
Q 2525 4250 2034 4250 
z
M 2034 4750 
Q 2819 4750 3233 4129 
Q 3647 3509 3647 2328 
Q 3647 1150 3233 529 
Q 2819 -91 2034 -91 
Q 1250 -91 836 529 
Q 422 1150 422 2328 
Q 422 3509 836 4129 
Q 1250 4750 2034 4750 
z
" transform="scale(0.015625)"/>
        </defs>
        <use xlink:href="#DejaVuSans-35"/>
        <use xlink:href="#DejaVuSans-30" x="63.623047"/>
       </g>
      </g>
     </g>
     <g id="ytick_2">
      <g id="line2d_2">
       <g>
        <use xlink:href="#md1c06b5836" x="414.72" y="71.616091" style="stroke: #000000; stroke-width: 0.8"/>
       </g>
      </g>
      <g id="text_2">
       <!-- 60 -->
       <g transform="translate(421.72 75.41531)scale(0.1 -0.1)">
        <defs>
         <path id="DejaVuSans-36" d="M 2113 2584 
Q 1688 2584 1439 2293 
Q 1191 2003 1191 1497 
Q 1191 994 1439 701 
Q 1688 409 2113 409 
Q 2538 409 2786 701 
Q 3034 994 3034 1497 
Q 3034 2003 2786 2293 
Q 2538 2584 2113 2584 
z
M 3366 4563 
L 3366 3988 
Q 3128 4100 2886 4159 
Q 2644 4219 2406 4219 
Q 1781 4219 1451 3797 
Q 1122 3375 1075 2522 
Q 1259 2794 1537 2939 
Q 1816 3084 2150 3084 
Q 2853 3084 3261 2657 
Q 3669 2231 3669 1497 
Q 3669 778 3244 343 
Q 2819 -91 2113 -91 
Q 1303 -91 875 529 
Q 447 1150 447 2328 
Q 447 3434 972 4092 
Q 1497 4750 2381 4750 
Q 2619 4750 2861 4703 
Q 3103 4656 3366 4563 
z
" transform="scale(0.015625)"/>
        </defs>
        <use xlink:href="#DejaVuSans-36"/>
        <use xlink:href="#DejaVuSans-30" x="63.623047"/>
       </g>
      </g>
     </g>
     <g id="ytick_3">
      <g id="line2d_3">
       <g>
        <use xlink:href="#md1c06b5836" x="414.72" y="94.306708" style="stroke: #000000; stroke-width: 0.8"/>
       </g>
      </g>
      <g id="text_3">
       <!-- 70 -->
       <g transform="translate(421.72 98.105927)scale(0.1 -0.1)">
        <defs>
         <path id="DejaVuSans-37" d="M 525 4666 
L 3525 4666 
L 3525 4397 
L 1831 0 
L 1172 0 
L 2766 4134 
L 525 4134 
L 525 4666 
z
" transform="scale(0.015625)"/>
        </defs>
        <use xlink:href="#DejaVuSans-37"/>
        <use xlink:href="#DejaVuSans-30" x="63.623047"/>
       </g>
      </g>
     </g>
     <g id="ytick_4">
      <g id="line2d_4">
       <g>
        <use xlink:href="#md1c06b5836" x="414.72" y="116.997325" style="stroke: #000000; stroke-width: 0.8"/>
       </g>
      </g>
      <g id="text_4">
       <!-- 80 -->
       <g transform="translate(421.72 120.796543)scale(0.1 -0.1)">
        <defs>
         <path id="DejaVuSans-38" d="M 2034 2216 
Q 1584 2216 1326 1975 
Q 1069 1734 1069 1313 
Q 1069 891 1326 650 
Q 1584 409 2034 409 
Q 2484 409 2743 651 
Q 3003 894 3003 1313 
Q 3003 1734 2745 1975 
Q 2488 2216 2034 2216 
z
M 1403 2484 
Q 997 2584 770 2862 
Q 544 3141 544 3541 
Q 544 4100 942 4425 
Q 1341 4750 2034 4750 
Q 2731 4750 3128 4425 
Q 3525 4100 3525 3541 
Q 3525 3141 3298 2862 
Q 3072 2584 2669 2484 
Q 3125 2378 3379 2068 
Q 3634 1759 3634 1313 
Q 3634 634 3220 271 
Q 2806 -91 2034 -91 
Q 1263 -91 848 271 
Q 434 634 434 1313 
Q 434 1759 690 2068 
Q 947 2378 1403 2484 
z
M 1172 3481 
Q 1172 3119 1398 2916 
Q 1625 2713 2034 2713 
Q 2441 2713 2670 2916 
Q 2900 3119 2900 3481 
Q 2900 3844 2670 4047 
Q 2441 4250 2034 4250 
Q 1625 4250 1398 4047 
Q 1172 3844 1172 3481 
z
" transform="scale(0.015625)"/>
        </defs>
        <use xlink:href="#DejaVuSans-38"/>
        <use xlink:href="#DejaVuSans-30" x="63.623047"/>
       </g>
      </g>
     </g>
     <g id="ytick_5">
      <g id="line2d_5">
       <g>
        <use xlink:href="#md1c06b5836" x="414.72" y="135.149818" style="stroke: #000000; stroke-width: 0.8"/>
       </g>
      </g>
      <g id="text_5">
       <!-- 90 -->
       <g transform="translate(421.72 138.949037)scale(0.1 -0.1)">
        <defs>
         <path id="DejaVuSans-39" d="M 703 97 
L 703 672 
Q 941 559 1184 500 
Q 1428 441 1663 441 
Q 2288 441 2617 861 
Q 2947 1281 2994 2138 
Q 2813 1869 2534 1725 
Q 2256 1581 1919 1581 
Q 1219 1581 811 2004 
Q 403 2428 403 3163 
Q 403 3881 828 4315 
Q 1253 4750 1959 4750 
Q 2769 4750 3195 4129 
Q 3622 3509 3622 2328 
Q 3622 1225 3098 567 
Q 2575 -91 1691 -91 
Q 1453 -91 1209 -44 
Q 966 3 703 97 
z
M 1959 2075 
Q 2384 2075 2632 2365 
Q 2881 2656 2881 3163 
Q 2881 3666 2632 3958 
Q 2384 4250 1959 4250 
Q 1534 4250 1286 3958 
Q 1038 3666 1038 3163 
Q 1038 2656 1286 2365 
Q 1534 2075 1959 2075 
z
" transform="scale(0.015625)"/>
        </defs>
        <use xlink:href="#DejaVuSans-39"/>
        <use xlink:href="#DejaVuSans-30" x="63.623047"/>
       </g>
      </g>
     </g>
     <g id="ytick_6">
      <g id="line2d_6">
       <g>
        <use xlink:href="#md1c06b5836" x="414.72" y="153.302311" style="stroke: #000000; stroke-width: 0.8"/>
       </g>
      </g>
      <g id="text_6">
       <!-- 100 -->
       <g transform="translate(421.72 157.10153)scale(0.1 -0.1)">
        <defs>
         <path id="DejaVuSans-31" d="M 794 531 
L 1825 531 
L 1825 4091 
L 703 3866 
L 703 4441 
L 1819 4666 
L 2450 4666 
L 2450 531 
L 3481 531 
L 3481 0 
L 794 0 
L 794 531 
z
" transform="scale(0.015625)"/>
        </defs>
        <use xlink:href="#DejaVuSans-31"/>
        <use xlink:href="#DejaVuSans-30" x="63.623047"/>
        <use xlink:href="#DejaVuSans-30" x="127.246094"/>
       </g>
      </g>
     </g>
     <g id="ytick_7">
      <g id="line2d_7">
       <g>
        <use xlink:href="#md1c06b5836" x="414.72" y="166.916681" style="stroke: #000000; stroke-width: 0.8"/>
       </g>
      </g>
      <g id="text_7">
       <!-- 110 -->
       <g transform="translate(421.72 170.7159)scale(0.1 -0.1)">
        <use xlink:href="#DejaVuSans-31"/>
        <use xlink:href="#DejaVuSans-31" x="63.623047"/>
        <use xlink:href="#DejaVuSans-30" x="127.246094"/>
       </g>
      </g>
     </g>
     <g id="ytick_8">
      <g id="line2d_8">
       <g>
        <use xlink:href="#md1c06b5836" x="414.72" y="185.069175" style="stroke: #000000; stroke-width: 0.8"/>
       </g>
      </g>
      <g id="text_8">
       <!-- 120 -->
       <g transform="translate(421.72 188.868393)scale(0.1 -0.1)">
        <defs>
         <path id="DejaVuSans-32" d="M 1228 531 
L 3431 531 
L 3431 0 
L 469 0 
L 469 531 
Q 828 903 1448 1529 
Q 2069 2156 2228 2338 
Q 2531 2678 2651 2914 
Q 2772 3150 2772 3378 
Q 2772 3750 2511 3984 
Q 2250 4219 1831 4219 
Q 1534 4219 1204 4116 
Q 875 4013 500 3803 
L 500 4441 
Q 881 4594 1212 4672 
Q 1544 4750 1819 4750 
Q 2544 4750 2975 4387 
Q 3406 4025 3406 3419 
Q 3406 3131 3298 2873 
Q 3191 2616 2906 2266 
Q 2828 2175 2409 1742 
Q 1991 1309 1228 531 
z
" transform="scale(0.015625)"/>
        </defs>
        <use xlink:href="#DejaVuSans-31"/>
        <use xlink:href="#DejaVuSans-32" x="63.623047"/>
        <use xlink:href="#DejaVuSans-30" x="127.246094"/>
       </g>
      </g>
     </g>
     <g id="ytick_9">
      <g id="line2d_9">
       <g>
        <use xlink:href="#md1c06b5836" x="414.72" y="198.683545" style="stroke: #000000; stroke-width: 0.8"/>
       </g>
      </g>
      <g id="text_9">
       <!-- 130 -->
       <g transform="translate(421.72 202.482763)scale(0.1 -0.1)">
        <defs>
         <path id="DejaVuSans-33" d="M 2597 2516 
Q 3050 2419 3304 2112 
Q 3559 1806 3559 1356 
Q 3559 666 3084 287 
Q 2609 -91 1734 -91 
Q 1441 -91 1130 -33 
Q 819 25 488 141 
L 488 750 
Q 750 597 1062 519 
Q 1375 441 1716 441 
Q 2309 441 2620 675 
Q 2931 909 2931 1356 
Q 2931 1769 2642 2001 
Q 2353 2234 1838 2234 
L 1294 2234 
L 1294 2753 
L 1863 2753 
Q 2328 2753 2575 2939 
Q 2822 3125 2822 3475 
Q 2822 3834 2567 4026 
Q 2313 4219 1838 4219 
Q 1578 4219 1281 4162 
Q 984 4106 628 3988 
L 628 4550 
Q 988 4650 1302 4700 
Q 1616 4750 1894 4750 
Q 2613 4750 3031 4423 
Q 3450 4097 3450 3541 
Q 3450 3153 3228 2886 
Q 3006 2619 2597 2516 
z
" transform="scale(0.015625)"/>
        </defs>
        <use xlink:href="#DejaVuSans-31"/>
        <use xlink:href="#DejaVuSans-33" x="63.623047"/>
        <use xlink:href="#DejaVuSans-30" x="127.246094"/>
       </g>
      </g>
     </g>
     <g id="ytick_10">
      <g id="line2d_10">
       <g>
        <use xlink:href="#md1c06b5836" x="414.72" y="212.297915" style="stroke: #000000; stroke-width: 0.8"/>
       </g>
      </g>
      <g id="text_10">
       <!-- 140 -->
       <g transform="translate(421.72 216.097134)scale(0.1 -0.1)">
        <defs>
         <path id="DejaVuSans-34" d="M 2419 4116 
L 825 1625 
L 2419 1625 
L 2419 4116 
z
M 2253 4666 
L 3047 4666 
L 3047 1625 
L 3713 1625 
L 3713 1100 
L 3047 1100 
L 3047 0 
L 2419 0 
L 2419 1100 
L 313 1100 
L 313 1709 
L 2253 4666 
z
" transform="scale(0.015625)"/>
        </defs>
        <use xlink:href="#DejaVuSans-31"/>
        <use xlink:href="#DejaVuSans-34" x="63.623047"/>
        <use xlink:href="#DejaVuSans-30" x="127.246094"/>
       </g>
      </g>
     </g>
     <g id="ytick_11">
      <g id="line2d_11">
       <g>
        <use xlink:href="#md1c06b5836" x="414.72" y="221.374161" style="stroke: #000000; stroke-width: 0.8"/>
       </g>
      </g>
      <g id="text_11">
       <!-- 150 -->
       <g transform="translate(421.72 225.17338)scale(0.1 -0.1)">
        <use xlink:href="#DejaVuSans-31"/>
        <use xlink:href="#DejaVuSans-35" x="63.623047"/>
        <use xlink:href="#DejaVuSans-30" x="127.246094"/>
       </g>
      </g>
     </g>
     <g id="ytick_12">
      <g id="line2d_12">
       <g>
        <use xlink:href="#md1c06b5836" x="414.72" y="234.988531" style="stroke: #000000; stroke-width: 0.8"/>
       </g>
      </g>
      <g id="text_12">
       <!-- 160 -->
       <g transform="translate(421.72 238.78775)scale(0.1 -0.1)">
        <use xlink:href="#DejaVuSans-31"/>
        <use xlink:href="#DejaVuSans-36" x="63.623047"/>
        <use xlink:href="#DejaVuSans-30" x="127.246094"/>
       </g>
      </g>
     </g>
     <g id="ytick_13">
      <g id="line2d_13">
       <g>
        <use xlink:href="#md1c06b5836" x="414.72" y="244.064778" style="stroke: #000000; stroke-width: 0.8"/>
       </g>
      </g>
      <g id="text_13">
       <!-- 170 -->
       <g transform="translate(421.72 247.863997)scale(0.1 -0.1)">
        <use xlink:href="#DejaVuSans-31"/>
        <use xlink:href="#DejaVuSans-37" x="63.623047"/>
        <use xlink:href="#DejaVuSans-30" x="127.246094"/>
       </g>
      </g>
     </g>
     <g id="ytick_14">
      <g id="line2d_14">
       <g>
        <use xlink:href="#md1c06b5836" x="414.72" y="253.141025" style="stroke: #000000; stroke-width: 0.8"/>
       </g>
      </g>
      <g id="text_14">
       <!-- 180 -->
       <g transform="translate(421.72 256.940244)scale(0.1 -0.1)">
        <use xlink:href="#DejaVuSans-31"/>
        <use xlink:href="#DejaVuSans-38" x="63.623047"/>
        <use xlink:href="#DejaVuSans-30" x="127.246094"/>
       </g>
      </g>
     </g>
     <g id="ytick_15">
      <g id="line2d_15">
       <g>
        <use xlink:href="#md1c06b5836" x="414.72" y="262.217272" style="stroke: #000000; stroke-width: 0.8"/>
       </g>
      </g>
      <g id="text_15">
       <!-- 190 -->
       <g transform="translate(421.72 266.01649)scale(0.1 -0.1)">
        <use xlink:href="#DejaVuSans-31"/>
        <use xlink:href="#DejaVuSans-39" x="63.623047"/>
        <use xlink:href="#DejaVuSans-30" x="127.246094"/>
       </g>
      </g>
     </g>
     <g id="ytick_16">
      <g id="line2d_16">
       <g>
        <use xlink:href="#md1c06b5836" x="414.72" y="271.293518" style="stroke: #000000; stroke-width: 0.8"/>
       </g>
      </g>
      <g id="text_16">
       <!-- 200 -->
       <g transform="translate(421.72 275.092737)scale(0.1 -0.1)">
        <use xlink:href="#DejaVuSans-32"/>
        <use xlink:href="#DejaVuSans-30" x="63.623047"/>
        <use xlink:href="#DejaVuSans-30" x="127.246094"/>
       </g>
      </g>
     </g>
     <g id="ytick_17">
      <g id="line2d_17">
       <g>
        <use xlink:href="#md1c06b5836" x="414.72" y="280.369765" style="stroke: #000000; stroke-width: 0.8"/>
       </g>
      </g>
      <g id="text_17">
       <!-- 210 -->
       <g transform="translate(421.72 284.168984)scale(0.1 -0.1)">
        <use xlink:href="#DejaVuSans-32"/>
        <use xlink:href="#DejaVuSans-31" x="63.623047"/>
        <use xlink:href="#DejaVuSans-30" x="127.246094"/>
       </g>
      </g>
     </g>
     <g id="ytick_18">
      <g id="line2d_18">
       <g>
        <use xlink:href="#md1c06b5836" x="414.72" y="284.907888" style="stroke: #000000; stroke-width: 0.8"/>
       </g>
      </g>
      <g id="text_18">
       <!-- 220 -->
       <g transform="translate(421.72 288.707107)scale(0.1 -0.1)">
        <use xlink:href="#DejaVuSans-32"/>
        <use xlink:href="#DejaVuSans-32" x="63.623047"/>
        <use xlink:href="#DejaVuSans-30" x="127.246094"/>
       </g>
      </g>
     </g>
     <g id="ytick_19">
      <g id="line2d_19">
       <g>
        <use xlink:href="#md1c06b5836" x="414.72" y="293.984135" style="stroke: #000000; stroke-width: 0.8"/>
       </g>
      </g>
      <g id="text_19">
       <!-- 230 -->
       <g transform="translate(421.72 297.783354)scale(0.1 -0.1)">
        <use xlink:href="#DejaVuSans-32"/>
        <use xlink:href="#DejaVuSans-33" x="63.623047"/>
        <use xlink:href="#DejaVuSans-30" x="127.246094"/>
       </g>
      </g>
     </g>
     <g id="ytick_20">
      <g id="line2d_20">
       <g>
        <use xlink:href="#md1c06b5836" x="414.72" y="298.522258" style="stroke: #000000; stroke-width: 0.8"/>
       </g>
      </g>
      <g id="text_20">
       <!-- 240 -->
       <g transform="translate(421.72 302.321477)scale(0.1 -0.1)">
        <use xlink:href="#DejaVuSans-32"/>
        <use xlink:href="#DejaVuSans-34" x="63.623047"/>
        <use xlink:href="#DejaVuSans-30" x="127.246094"/>
       </g>
      </g>
     </g>
     <g id="text_21">
      <!-- Temperature (°C) -->
      <g transform="translate(452.405938 217.679563)rotate(-90)scale(0.1 -0.1)">
       <defs>
        <path id="DejaVuSans-54" d="M -19 4666 
L 3928 4666 
L 3928 4134 
L 2272 4134 
L 2272 0 
L 1638 0 
L 1638 4134 
L -19 4134 
L -19 4666 
z
" transform="scale(0.015625)"/>
        <path id="DejaVuSans-65" d="M 3597 1894 
L 3597 1613 
L 953 1613 
Q 991 1019 1311 708 
Q 1631 397 2203 397 
Q 2534 397 2845 478 
Q 3156 559 3463 722 
L 3463 178 
Q 3153 47 2828 -22 
Q 2503 -91 2169 -91 
Q 1331 -91 842 396 
Q 353 884 353 1716 
Q 353 2575 817 3079 
Q 1281 3584 2069 3584 
Q 2775 3584 3186 3129 
Q 3597 2675 3597 1894 
z
M 3022 2063 
Q 3016 2534 2758 2815 
Q 2500 3097 2075 3097 
Q 1594 3097 1305 2825 
Q 1016 2553 972 2059 
L 3022 2063 
z
" transform="scale(0.015625)"/>
        <path id="DejaVuSans-6d" d="M 3328 2828 
Q 3544 3216 3844 3400 
Q 4144 3584 4550 3584 
Q 5097 3584 5394 3201 
Q 5691 2819 5691 2113 
L 5691 0 
L 5113 0 
L 5113 2094 
Q 5113 2597 4934 2840 
Q 4756 3084 4391 3084 
Q 3944 3084 3684 2787 
Q 3425 2491 3425 1978 
L 3425 0 
L 2847 0 
L 2847 2094 
Q 2847 2600 2669 2842 
Q 2491 3084 2119 3084 
Q 1678 3084 1418 2786 
Q 1159 2488 1159 1978 
L 1159 0 
L 581 0 
L 581 3500 
L 1159 3500 
L 1159 2956 
Q 1356 3278 1631 3431 
Q 1906 3584 2284 3584 
Q 2666 3584 2933 3390 
Q 3200 3197 3328 2828 
z
" transform="scale(0.015625)"/>
        <path id="DejaVuSans-70" d="M 1159 525 
L 1159 -1331 
L 581 -1331 
L 581 3500 
L 1159 3500 
L 1159 2969 
Q 1341 3281 1617 3432 
Q 1894 3584 2278 3584 
Q 2916 3584 3314 3078 
Q 3713 2572 3713 1747 
Q 3713 922 3314 415 
Q 2916 -91 2278 -91 
Q 1894 -91 1617 61 
Q 1341 213 1159 525 
z
M 3116 1747 
Q 3116 2381 2855 2742 
Q 2594 3103 2138 3103 
Q 1681 3103 1420 2742 
Q 1159 2381 1159 1747 
Q 1159 1113 1420 752 
Q 1681 391 2138 391 
Q 2594 391 2855 752 
Q 3116 1113 3116 1747 
z
" transform="scale(0.015625)"/>
        <path id="DejaVuSans-72" d="M 2631 2963 
Q 2534 3019 2420 3045 
Q 2306 3072 2169 3072 
Q 1681 3072 1420 2755 
Q 1159 2438 1159 1844 
L 1159 0 
L 581 0 
L 581 3500 
L 1159 3500 
L 1159 2956 
Q 1341 3275 1631 3429 
Q 1922 3584 2338 3584 
Q 2397 3584 2469 3576 
Q 2541 3569 2628 3553 
L 2631 2963 
z
" transform="scale(0.015625)"/>
        <path id="DejaVuSans-61" d="M 2194 1759 
Q 1497 1759 1228 1600 
Q 959 1441 959 1056 
Q 959 750 1161 570 
Q 1363 391 1709 391 
Q 2188 391 2477 730 
Q 2766 1069 2766 1631 
L 2766 1759 
L 2194 1759 
z
M 3341 1997 
L 3341 0 
L 2766 0 
L 2766 531 
Q 2569 213 2275 61 
Q 1981 -91 1556 -91 
Q 1019 -91 701 211 
Q 384 513 384 1019 
Q 384 1609 779 1909 
Q 1175 2209 1959 2209 
L 2766 2209 
L 2766 2266 
Q 2766 2663 2505 2880 
Q 2244 3097 1772 3097 
Q 1472 3097 1187 3025 
Q 903 2953 641 2809 
L 641 3341 
Q 956 3463 1253 3523 
Q 1550 3584 1831 3584 
Q 2591 3584 2966 3190 
Q 3341 2797 3341 1997 
z
" transform="scale(0.015625)"/>
        <path id="DejaVuSans-74" d="M 1172 4494 
L 1172 3500 
L 2356 3500 
L 2356 3053 
L 1172 3053 
L 1172 1153 
Q 1172 725 1289 603 
Q 1406 481 1766 481 
L 2356 481 
L 2356 0 
L 1766 0 
Q 1100 0 847 248 
Q 594 497 594 1153 
L 594 3053 
L 172 3053 
L 172 3500 
L 594 3500 
L 594 4494 
L 1172 4494 
z
" transform="scale(0.015625)"/>
        <path id="DejaVuSans-75" d="M 544 1381 
L 544 3500 
L 1119 3500 
L 1119 1403 
Q 1119 906 1312 657 
Q 1506 409 1894 409 
Q 2359 409 2629 706 
Q 2900 1003 2900 1516 
L 2900 3500 
L 3475 3500 
L 3475 0 
L 2900 0 
L 2900 538 
Q 2691 219 2414 64 
Q 2138 -91 1772 -91 
Q 1169 -91 856 284 
Q 544 659 544 1381 
z
M 1991 3584 
L 1991 3584 
z
" transform="scale(0.015625)"/>
        <path id="DejaVuSans-20" transform="scale(0.015625)"/>
        <path id="DejaVuSans-28" d="M 1984 4856 
Q 1566 4138 1362 3434 
Q 1159 2731 1159 2009 
Q 1159 1288 1364 580 
Q 1569 -128 1984 -844 
L 1484 -844 
Q 1016 -109 783 600 
Q 550 1309 550 2009 
Q 550 2706 781 3412 
Q 1013 4119 1484 4856 
L 1984 4856 
z
" transform="scale(0.015625)"/>
        <path id="DejaVuSans-b0" d="M 1600 4347 
Q 1350 4347 1178 4173 
Q 1006 4000 1006 3750 
Q 1006 3503 1178 3333 
Q 1350 3163 1600 3163 
Q 1850 3163 2022 3333 
Q 2194 3503 2194 3750 
Q 2194 3997 2020 4172 
Q 1847 4347 1600 4347 
z
M 1600 4750 
Q 1800 4750 1984 4673 
Q 2169 4597 2303 4453 
Q 2447 4313 2519 4134 
Q 2591 3956 2591 3750 
Q 2591 3338 2302 3052 
Q 2013 2766 1594 2766 
Q 1172 2766 890 3047 
Q 609 3328 609 3750 
Q 609 4169 896 4459 
Q 1184 4750 1600 4750 
z
" transform="scale(0.015625)"/>
        <path id="DejaVuSans-43" d="M 4122 4306 
L 4122 3641 
Q 3803 3938 3442 4084 
Q 3081 4231 2675 4231 
Q 1875 4231 1450 3742 
Q 1025 3253 1025 2328 
Q 1025 1406 1450 917 
Q 1875 428 2675 428 
Q 3081 428 3442 575 
Q 3803 722 4122 1019 
L 4122 359 
Q 3791 134 3420 21 
Q 3050 -91 2638 -91 
Q 1578 -91 968 557 
Q 359 1206 359 2328 
Q 359 3453 968 4101 
Q 1578 4750 2638 4750 
Q 3056 4750 3426 4639 
Q 3797 4528 4122 4306 
z
" transform="scale(0.015625)"/>
        <path id="DejaVuSans-29" d="M 513 4856 
L 1013 4856 
Q 1481 4119 1714 3412 
Q 1947 2706 1947 2009 
Q 1947 1309 1714 600 
Q 1481 -109 1013 -844 
L 513 -844 
Q 928 -128 1133 580 
Q 1338 1288 1338 2009 
Q 1338 2731 1133 3434 
Q 928 4138 513 4856 
z
" transform="scale(0.015625)"/>
       </defs>
       <use xlink:href="#DejaVuSans-54"/>
       <use xlink:href="#DejaVuSans-65" x="44.083984"/>
       <use xlink:href="#DejaVuSans-6d" x="105.607422"/>
       <use xlink:href="#DejaVuSans-70" x="203.019531"/>
       <use xlink:href="#DejaVuSans-65" x="266.496094"/>
       <use xlink:href="#DejaVuSans-72" x="328.019531"/>
       <use xlink:href="#DejaVuSans-61" x="369.132812"/>
       <use xlink:href="#DejaVuSans-74" x="430.412109"/>
       <use xlink:href="#DejaVuSans-75" x="469.621094"/>
       <use xlink:href="#DejaVuSans-72" x="533"/>
       <use xlink:href="#DejaVuSans-65" x="571.863281"/>
       <use xlink:href="#DejaVuSans-20" x="633.386719"/>
       <use xlink:href="#DejaVuSans-28" x="665.173828"/>
       <use xlink:href="#DejaVuSans-b0" x="704.1875"/>
       <use xlink:href="#DejaVuSans-43" x="754.1875"/>
       <use xlink:href="#DejaVuSans-29" x="824.011719"/>
      </g>
     </g>
    </g>
    <g id="patch_4">
     <path d="M 414.72 307.584 
L 414.72 41.472 
" style="fill: none; stroke: #000000; stroke-width: 0.8; stroke-linejoin: miter; stroke-linecap: square"/>
    </g>
   </g>
   <g id="PolyCollection_1">
    <path d="M 397.341433 92.446492 
L 397.341433 137.373892 
L 396.895829 137.372995 
L 396.450225 137.372373 
L 396.00462 137.371836 
L 395.559016 137.371348 
L 395.113412 137.370892 
L 394.667807 137.370461 
L 394.260398 137.369772 
L 393.852988 137.368873 
L 393.445579 137.368036 
L 393.038169 137.367244 
L 392.630759 137.366487 
L 392.22335 137.365754 
L 391.81594 137.36532 
L 391.40853 137.365165 
L 391.001121 137.365008 
L 390.593711 137.364848 
L 390.186302 137.364685 
L 389.778892 137.364518 
L 389.371482 137.364347 
L 388.964073 137.36417 
L 388.556663 137.364047 
L 387.207119 137.3644 
L 385.857574 137.365258 
L 384.50803 137.366746 
L 383.171217 137.369283 
L 381.821673 137.373329 
L 380.472128 137.37953 
L 379.122584 137.3888 
L 377.93855 137.400876 
L 376.754516 137.416531 
L 375.570481 137.436802 
L 371.279949 137.457184 
L 367.040342 137.471097 
L 362.83893 137.47894 
L 359.859748 137.496985 
L 356.893296 137.531263 
L 353.914113 137.588086 
L 350.93493 137.672776 
L 347.968479 137.789887 
L 344.989296 137.946177 
L 342.022845 138.154911 
L 339.043662 138.425516 
L 336.064479 138.765706 
L 333.098028 139.18381 
L 330.118845 139.687162 
L 323.192881 140.408563 
L 316.266918 141.310217 
L 309.340954 142.343123 
L 302.41499 143.486561 
L 295.489027 144.719657 
L 292.929985 146.18298 
L 290.370943 147.960044 
L 287.811902 150.077269 
L 285.25286 152.524902 
L 282.693818 155.273224 
L 280.134776 158.274418 
L 277.575735 161.487245 
L 275.016693 164.871289 
L 272.457651 168.377392 
L 269.89861 171.977776 
L 267.339568 175.647866 
L 264.780526 179.368604 
L 262.221484 183.119267 
L 259.662443 186.894071 
L 257.103401 190.68253 
L 254.557091 194.481137 
L 251.998049 198.290722 
L 249.439007 204.656333 
L 246.879966 212.376546 
L 244.320924 218.935399 
L 241.761882 224.769905 
L 239.202841 230.111604 
L 236.783846 233.896509 
L 234.364851 236.433173 
L 231.958588 239.141344 
L 229.539594 241.993167 
L 227.120599 244.950442 
L 224.714336 247.999327 
L 222.295341 251.122196 
L 219.723568 254.372373 
L 217.151795 257.696082 
L 214.580021 261.049732 
L 212.02098 264.434052 
L 209.449206 268.29888 
L 206.877433 272.472773 
L 204.394781 276.345019 
L 201.912128 279.042816 
L 199.429476 280.672263 
L 196.946824 282.478868 
L 194.464171 284.481305 
L 191.981519 286.63712 
L 189.498866 288.830999 
L 187.016214 291.04265 
L 184.533561 293.270525 
L 182.050909 295.488 
L 178.969874 295.242112 
L 176.079812 293.76519 
L 173.317065 292.140897 
L 170.694366 290.367087 
L 168.160787 288.605726 
L 165.703598 286.931019 
L 163.335529 285.377155 
L 161.031119 283.964129 
L 158.777634 282.695468 
L 156.587807 281.570002 
L 146.580809 280.31478 
L 136.790246 279.416849 
L 127.177925 278.724407 
L 117.731114 278.175582 
L 108.437082 277.734567 
L 99.295829 277.377947 
L 95.52729 277.088475 
L 91.809677 276.835124 
L 88.130259 276.622866 
L 84.501767 276.445208 
L 80.91147 276.29696 
L 77.359367 276.173431 
L 73.832727 276.070686 
L 73.832727 136.386781 
L 73.832727 136.386781 
L 77.359367 136.323817 
L 80.91147 136.249242 
L 84.501767 136.161166 
L 88.130259 136.057404 
L 91.809677 135.935706 
L 95.52729 135.793257 
L 99.295829 135.633722 
L 108.437082 135.437617 
L 117.731114 135.201245 
L 127.177925 134.915133 
L 136.790246 134.564549 
L 146.580809 134.12317 
L 156.587807 133.519213 
L 158.777634 133.047611 
L 161.031119 132.539231 
L 163.335529 131.997706 
L 165.703598 131.425573 
L 168.160787 130.826529 
L 170.694366 130.198199 
L 173.317065 129.533357 
L 176.079812 128.820028 
L 178.969874 127.586197 
L 182.050909 125.274161 
L 184.533561 122.469832 
L 187.016214 119.918216 
L 189.498866 117.609869 
L 191.981519 115.530834 
L 194.464171 113.689619 
L 196.946824 112.196634 
L 199.429476 111.020427 
L 201.912128 110.033222 
L 204.394781 107.794424 
L 206.877433 104.428565 
L 209.449206 101.238102 
L 212.02098 98.724223 
L 214.580021 96.869332 
L 217.151795 95.220194 
L 219.723568 93.765503 
L 222.295341 92.503607 
L 224.714336 91.406195 
L 227.120599 90.460353 
L 229.539594 89.655854 
L 231.958588 88.97944 
L 234.364851 88.419937 
L 236.783846 87.957243 
L 239.202841 87.202901 
L 241.761882 86.249818 
L 244.320924 85.4791 
L 246.879966 84.922699 
L 249.439007 84.65501 
L 251.998049 84.786493 
L 254.557091 85.041471 
L 257.103401 85.374742 
L 259.662443 85.782266 
L 262.221484 86.259444 
L 264.780526 86.799373 
L 267.339568 87.396226 
L 269.89861 88.039486 
L 272.457651 88.71782 
L 275.016693 89.417235 
L 277.575735 90.122031 
L 280.134776 90.809022 
L 282.693818 91.456441 
L 285.25286 92.04289 
L 287.811902 92.546777 
L 290.370943 92.955203 
L 292.929985 93.263646 
L 295.489027 93.47842 
L 302.41499 93.617655 
L 309.340954 93.705892 
L 316.266918 93.738288 
L 323.192881 93.714859 
L 330.118845 93.646858 
L 333.098028 93.557096 
L 336.064479 93.448301 
L 339.043662 93.328045 
L 342.022845 93.204081 
L 344.989296 93.084603 
L 347.968479 92.976112 
L 350.93493 92.879831 
L 353.914113 92.799136 
L 356.893296 92.73774 
L 359.859748 92.696032 
L 362.83893 92.670507 
L 367.040342 92.655187 
L 371.279949 92.631679 
L 375.570481 92.599261 
L 376.754516 92.565783 
L 377.93855 92.53766 
L 379.122584 92.514249 
L 380.472128 92.495114 
L 381.821673 92.481252 
L 383.171217 92.471523 
L 384.50803 92.464976 
L 385.857574 92.460807 
L 387.207119 92.458063 
L 388.556663 92.456562 
L 388.964073 92.456215 
L 389.371482 92.456038 
L 389.778892 92.455867 
L 390.186302 92.4557 
L 390.593711 92.455536 
L 391.001121 92.455377 
L 391.40853 92.455219 
L 391.81594 92.455064 
L 392.22335 92.454631 
L 392.630759 92.453898 
L 393.038169 92.45314 
L 393.445579 92.452348 
L 393.852988 92.451511 
L 394.260398 92.450613 
L 394.667807 92.449924 
L 395.113412 92.449492 
L 395.559016 92.449037 
L 396.00462 92.448548 
L 396.450225 92.448011 
L 396.895829 92.44739 
L 397.341433 92.446492 
z
" clip-path="url(#pa871e2bfff)" style="fill: #1f77b4; fill-opacity: 0.5"/>
   </g>
   <g id="matplotlib.axis_3">
    <g id="xtick_1">
     <g id="line2d_21">
      <defs>
       <path id="mea8b1379ee" d="M 0 0 
L 0 3.5 
" style="stroke: #000000; stroke-width: 0.8"/>
      </defs>
      <g>
       <use xlink:href="#mea8b1379ee" x="73.832727" y="307.584" style="stroke: #000000; stroke-width: 0.8"/>
      </g>
     </g>
     <g id="text_22">
      <!-- 0 -->
      <g transform="translate(70.651477 322.182437)scale(0.1 -0.1)">
       <use xlink:href="#DejaVuSans-30"/>
      </g>
     </g>
    </g>
    <g id="xtick_2">
     <g id="line2d_22">
      <g>
       <use xlink:href="#mea8b1379ee" x="137.490481" y="307.584" style="stroke: #000000; stroke-width: 0.8"/>
      </g>
     </g>
     <g id="text_23">
      <!-- 50 -->
      <g transform="translate(131.127981 322.182437)scale(0.1 -0.1)">
       <use xlink:href="#DejaVuSans-35"/>
       <use xlink:href="#DejaVuSans-30" x="63.623047"/>
      </g>
     </g>
    </g>
    <g id="xtick_3">
     <g id="line2d_23">
      <g>
       <use xlink:href="#mea8b1379ee" x="201.148235" y="307.584" style="stroke: #000000; stroke-width: 0.8"/>
      </g>
     </g>
     <g id="text_24">
      <!-- 100 -->
      <g transform="translate(191.604485 322.182437)scale(0.1 -0.1)">
       <use xlink:href="#DejaVuSans-31"/>
       <use xlink:href="#DejaVuSans-30" x="63.623047"/>
       <use xlink:href="#DejaVuSans-30" x="127.246094"/>
      </g>
     </g>
    </g>
    <g id="xtick_4">
     <g id="line2d_24">
      <g>
       <use xlink:href="#mea8b1379ee" x="264.805989" y="307.584" style="stroke: #000000; stroke-width: 0.8"/>
      </g>
     </g>
     <g id="text_25">
      <!-- 150 -->
      <g transform="translate(255.262239 322.182437)scale(0.1 -0.1)">
       <use xlink:href="#DejaVuSans-31"/>
       <use xlink:href="#DejaVuSans-35" x="63.623047"/>
       <use xlink:href="#DejaVuSans-30" x="127.246094"/>
      </g>
     </g>
    </g>
    <g id="xtick_5">
     <g id="line2d_25">
      <g>
       <use xlink:href="#mea8b1379ee" x="328.463743" y="307.584" style="stroke: #000000; stroke-width: 0.8"/>
      </g>
     </g>
     <g id="text_26">
      <!-- 200 -->
      <g transform="translate(318.919993 322.182437)scale(0.1 -0.1)">
       <use xlink:href="#DejaVuSans-32"/>
       <use xlink:href="#DejaVuSans-30" x="63.623047"/>
       <use xlink:href="#DejaVuSans-30" x="127.246094"/>
      </g>
     </g>
    </g>
    <g id="xtick_6">
     <g id="line2d_26">
      <g>
       <use xlink:href="#mea8b1379ee" x="392.121497" y="307.584" style="stroke: #000000; stroke-width: 0.8"/>
      </g>
     </g>
     <g id="text_27">
      <!-- 250 -->
      <g transform="translate(382.577747 322.182437)scale(0.1 -0.1)">
       <use xlink:href="#DejaVuSans-32"/>
       <use xlink:href="#DejaVuSans-35" x="63.623047"/>
       <use xlink:href="#DejaVuSans-30" x="127.246094"/>
      </g>
     </g>
    </g>
    <g id="text_28">
     <!-- time (Myr) -->
     <g transform="translate(210.044375 335.860562)scale(0.1 -0.1)">
      <defs>
       <path id="DejaVuSans-69" d="M 603 3500 
L 1178 3500 
L 1178 0 
L 603 0 
L 603 3500 
z
M 603 4863 
L 1178 4863 
L 1178 4134 
L 603 4134 
L 603 4863 
z
" transform="scale(0.015625)"/>
       <path id="DejaVuSans-4d" d="M 628 4666 
L 1569 4666 
L 2759 1491 
L 3956 4666 
L 4897 4666 
L 4897 0 
L 4281 0 
L 4281 4097 
L 3078 897 
L 2444 897 
L 1241 4097 
L 1241 0 
L 628 0 
L 628 4666 
z
" transform="scale(0.015625)"/>
       <path id="DejaVuSans-79" d="M 2059 -325 
Q 1816 -950 1584 -1140 
Q 1353 -1331 966 -1331 
L 506 -1331 
L 506 -850 
L 844 -850 
Q 1081 -850 1212 -737 
Q 1344 -625 1503 -206 
L 1606 56 
L 191 3500 
L 800 3500 
L 1894 763 
L 2988 3500 
L 3597 3500 
L 2059 -325 
z
" transform="scale(0.015625)"/>
      </defs>
      <use xlink:href="#DejaVuSans-74"/>
      <use xlink:href="#DejaVuSans-69" x="39.208984"/>
      <use xlink:href="#DejaVuSans-6d" x="66.992188"/>
      <use xlink:href="#DejaVuSans-65" x="164.404297"/>
      <use xlink:href="#DejaVuSans-20" x="225.927734"/>
      <use xlink:href="#DejaVuSans-28" x="257.714844"/>
      <use xlink:href="#DejaVuSans-4d" x="296.728516"/>
      <use xlink:href="#DejaVuSans-79" x="383.007812"/>
      <use xlink:href="#DejaVuSans-72" x="442.1875"/>
      <use xlink:href="#DejaVuSans-29" x="483.300781"/>
     </g>
    </g>
   </g>
   <g id="matplotlib.axis_4">
    <g id="ytick_21">
     <g id="line2d_27">
      <defs>
       <path id="m895594ffb0" d="M 0 0 
L -3.5 0 
" style="stroke: #000000; stroke-width: 0.8"/>
      </defs>
      <g>
       <use xlink:href="#m895594ffb0" x="57.6" y="303.060382" style="stroke: #000000; stroke-width: 0.8"/>
      </g>
     </g>
     <g id="text_29">
      <!-- 0.30 -->
      <g transform="translate(28.334375 306.8596)scale(0.1 -0.1)">
       <defs>
        <path id="DejaVuSans-2e" d="M 684 794 
L 1344 794 
L 1344 0 
L 684 0 
L 684 794 
z
" transform="scale(0.015625)"/>
       </defs>
       <use xlink:href="#DejaVuSans-30"/>
       <use xlink:href="#DejaVuSans-2e" x="63.623047"/>
       <use xlink:href="#DejaVuSans-33" x="95.410156"/>
       <use xlink:href="#DejaVuSans-30" x="159.033203"/>
      </g>
     </g>
    </g>
    <g id="ytick_22">
     <g id="line2d_28">
      <g>
       <use xlink:href="#m895594ffb0" x="57.6" y="246.901105" style="stroke: #000000; stroke-width: 0.8"/>
      </g>
     </g>
     <g id="text_30">
      <!-- 0.35 -->
      <g transform="translate(28.334375 250.700324)scale(0.1 -0.1)">
       <use xlink:href="#DejaVuSans-30"/>
       <use xlink:href="#DejaVuSans-2e" x="63.623047"/>
       <use xlink:href="#DejaVuSans-33" x="95.410156"/>
       <use xlink:href="#DejaVuSans-35" x="159.033203"/>
      </g>
     </g>
    </g>
    <g id="ytick_23">
     <g id="line2d_29">
      <g>
       <use xlink:href="#m895594ffb0" x="57.6" y="190.741829" style="stroke: #000000; stroke-width: 0.8"/>
      </g>
     </g>
     <g id="text_31">
      <!-- 0.40 -->
      <g transform="translate(28.334375 194.541048)scale(0.1 -0.1)">
       <use xlink:href="#DejaVuSans-30"/>
       <use xlink:href="#DejaVuSans-2e" x="63.623047"/>
       <use xlink:href="#DejaVuSans-34" x="95.410156"/>
       <use xlink:href="#DejaVuSans-30" x="159.033203"/>
      </g>
     </g>
    </g>
    <g id="ytick_24">
     <g id="line2d_30">
      <g>
       <use xlink:href="#m895594ffb0" x="57.6" y="134.582553" style="stroke: #000000; stroke-width: 0.8"/>
      </g>
     </g>
     <g id="text_32">
      <!-- 0.45 -->
      <g transform="translate(28.334375 138.381771)scale(0.1 -0.1)">
       <use xlink:href="#DejaVuSans-30"/>
       <use xlink:href="#DejaVuSans-2e" x="63.623047"/>
       <use xlink:href="#DejaVuSans-34" x="95.410156"/>
       <use xlink:href="#DejaVuSans-35" x="159.033203"/>
      </g>
     </g>
    </g>
    <g id="ytick_25">
     <g id="line2d_31">
      <g>
       <use xlink:href="#m895594ffb0" x="57.6" y="78.423276" style="stroke: #000000; stroke-width: 0.8"/>
      </g>
     </g>
     <g id="text_33">
      <!-- 0.50 -->
      <g transform="translate(28.334375 82.222495)scale(0.1 -0.1)">
       <use xlink:href="#DejaVuSans-30"/>
       <use xlink:href="#DejaVuSans-2e" x="63.623047"/>
       <use xlink:href="#DejaVuSans-35" x="95.410156"/>
       <use xlink:href="#DejaVuSans-30" x="159.033203"/>
      </g>
     </g>
    </g>
    <g id="text_34">
     <!-- D47 (‰) -->
     <g transform="translate(22.254687 196.9405)rotate(-90)scale(0.1 -0.1)">
      <defs>
       <path id="DejaVuSans-44" d="M 1259 4147 
L 1259 519 
L 2022 519 
Q 2988 519 3436 956 
Q 3884 1394 3884 2338 
Q 3884 3275 3436 3711 
Q 2988 4147 2022 4147 
L 1259 4147 
z
M 628 4666 
L 1925 4666 
Q 3281 4666 3915 4102 
Q 4550 3538 4550 2338 
Q 4550 1131 3912 565 
Q 3275 0 1925 0 
L 628 0 
L 628 4666 
z
" transform="scale(0.015625)"/>
       <path id="DejaVuSans-2030" d="M 7163 2053 
Q 6891 2053 6734 1822 
Q 6578 1591 6578 1178 
Q 6578 772 6734 539 
Q 6891 306 7163 306 
Q 7428 306 7583 539 
Q 7738 772 7738 1178 
Q 7738 1588 7583 1820 
Q 7428 2053 7163 2053 
z
M 7163 2450 
Q 7656 2450 7947 2106 
Q 8238 1763 8238 1178 
Q 8238 594 7945 251 
Q 7653 -91 7163 -91 
Q 6663 -91 6372 251 
Q 6081 594 6081 1178 
Q 6081 1766 6373 2108 
Q 6666 2450 7163 2450 
z
M 1428 4750 
Q 1922 4750 2215 4408 
Q 2509 4066 2509 3481 
Q 2509 2891 2217 2550 
Q 1925 2209 1428 2209 
Q 931 2209 642 2551 
Q 353 2894 353 3481 
Q 353 4063 643 4406 
Q 934 4750 1428 4750 
z
M 4250 4750 
L 4750 4750 
L 1831 -91 
L 1331 -91 
L 4250 4750 
z
M 1428 4353 
Q 1159 4353 1004 4120 
Q 850 3888 850 3481 
Q 850 3069 1003 2837 
Q 1156 2606 1428 2606 
Q 1700 2606 1854 2837 
Q 2009 3069 2009 3481 
Q 2009 3884 1853 4118 
Q 1697 4353 1428 4353 
z
M 4653 2450 
Q 5147 2450 5437 2106 
Q 5728 1763 5728 1178 
Q 5728 594 5436 251 
Q 5144 -91 4653 -91 
Q 4153 -91 3862 251 
Q 3572 594 3572 1178 
Q 3572 1766 3864 2108 
Q 4156 2450 4653 2450 
z
M 4653 2053 
Q 4381 2053 4226 1822 
Q 4072 1591 4072 1178 
Q 4072 772 4226 539 
Q 4381 306 4653 306 
Q 4919 306 5073 539 
Q 5228 772 5228 1178 
Q 5228 1588 5073 1820 
Q 4919 2053 4653 2053 
z
" transform="scale(0.015625)"/>
      </defs>
      <use xlink:href="#DejaVuSans-44"/>
      <use xlink:href="#DejaVuSans-34" x="77.001953"/>
      <use xlink:href="#DejaVuSans-37" x="140.625"/>
      <use xlink:href="#DejaVuSans-20" x="204.248047"/>
      <use xlink:href="#DejaVuSans-28" x="236.035156"/>
      <use xlink:href="#DejaVuSans-2030" x="275.048828"/>
      <use xlink:href="#DejaVuSans-29" x="409.228516"/>
     </g>
    </g>
   </g>
   <g id="line2d_32">
    <path d="M 397.341433 114.910192 
L 396.895829 114.910192 
L 396.450225 114.910192 
L 396.00462 114.910192 
L 395.559016 114.910192 
L 395.113412 114.910192 
L 394.667807 114.910192 
L 394.260398 114.910192 
L 393.852988 114.910192 
L 393.445579 114.910192 
L 393.038169 114.910192 
L 392.630759 114.910192 
L 392.22335 114.910192 
L 391.81594 114.910192 
L 391.40853 114.910192 
L 391.001121 114.910192 
L 390.593711 114.910192 
L 390.186302 114.910192 
L 389.778892 114.910192 
L 389.371482 114.910192 
L 388.964073 114.910192 
L 388.556663 114.910304 
L 387.207119 114.911231 
L 385.857574 114.913033 
L 384.50803 114.915861 
L 383.171217 114.920403 
L 381.821673 114.92729 
L 380.472128 114.937322 
L 379.122584 114.951525 
L 377.93855 114.969268 
L 376.754516 114.991157 
L 375.570481 115.018031 
L 371.279949 115.044432 
L 367.040342 115.063142 
L 362.83893 115.074723 
L 359.859748 115.096508 
L 356.893296 115.134501 
L 353.914113 115.193611 
L 350.93493 115.276303 
L 347.968479 115.383 
L 344.989296 115.51539 
L 342.022845 115.679496 
L 339.043662 115.87678 
L 336.064479 116.107003 
L 333.098028 116.370453 
L 330.118845 116.66701 
L 323.192881 117.061711 
L 316.266918 117.524253 
L 309.340954 118.024507 
L 302.41499 118.552108 
L 295.489027 119.099038 
L 292.929985 119.723313 
L 290.370943 120.457623 
L 287.811902 121.312023 
L 285.25286 122.283896 
L 282.693818 123.364833 
L 280.134776 124.54172 
L 277.575735 125.804638 
L 275.016693 127.144262 
L 272.457651 128.547606 
L 269.89861 130.008631 
L 267.339568 131.522046 
L 264.780526 133.083988 
L 262.221484 134.689356 
L 259.662443 136.338169 
L 257.103401 138.028636 
L 254.557091 139.761304 
L 251.998049 141.538608 
L 249.439007 144.655671 
L 246.879966 148.649623 
L 244.320924 152.207249 
L 241.761882 155.509861 
L 239.202841 158.657253 
L 236.783846 160.926876 
L 234.364851 162.426555 
L 231.958588 164.060392 
L 229.539594 165.82451 
L 227.120599 167.705397 
L 224.714336 169.702761 
L 222.295341 171.812901 
L 219.723568 174.068938 
L 217.151795 176.458138 
L 214.580021 178.959532 
L 212.02098 181.579137 
L 209.449206 184.768491 
L 206.877433 188.450669 
L 204.394781 192.069721 
L 201.912128 194.538019 
L 199.429476 195.846345 
L 196.946824 197.337751 
L 194.464171 199.085462 
L 191.981519 201.083977 
L 189.498866 203.220434 
L 187.016214 205.480433 
L 184.533561 207.870178 
L 182.050909 210.381081 
L 178.969874 211.414155 
L 176.079812 211.292609 
L 173.317065 210.837127 
L 170.694366 210.282643 
L 168.160787 209.716127 
L 165.703598 209.178296 
L 163.335529 208.687431 
L 161.031119 208.25168 
L 158.777634 207.87154 
L 156.587807 207.544607 
L 146.580809 207.218975 
L 136.790246 206.990699 
L 127.177925 206.81977 
L 117.731114 206.688414 
L 108.437082 206.586092 
L 99.295829 206.505835 
L 95.52729 206.440866 
L 91.809677 206.385415 
L 88.130259 206.340135 
L 84.501767 206.303187 
L 80.91147 206.273101 
L 77.359367 206.248624 
L 73.832727 206.228733 
" clip-path="url(#pa871e2bfff)" style="fill: none; stroke: #1f77b4; stroke-width: 1.5; stroke-linecap: square"/>
   </g>
   <g id="LineCollection_1">
    <path clip-path="url(#pa871e2bfff)" style="fill: none; stroke: #ff0000; stroke-width: 1.5"/>
    <path clip-path="url(#pa871e2bfff)" style="fill: none; stroke: #ff0000; stroke-width: 1.5"/>
    <path clip-path="url(#pa871e2bfff)" style="fill: none; stroke: #ff0000; stroke-width: 1.5"/>
    <path d="M 391.612235 124.278878 
L 398.487273 124.278878 
" clip-path="url(#pa871e2bfff)" style="fill: none; stroke: #ff0000; stroke-width: 1.5"/>
    <path clip-path="url(#pa871e2bfff)" style="fill: none; stroke: #ff0000; stroke-width: 1.5"/>
    <path clip-path="url(#pa871e2bfff)" style="fill: none; stroke: #ff0000; stroke-width: 1.5"/>
   </g>
   <g id="LineCollection_2">
    <path clip-path="url(#pa871e2bfff)" style="fill: none; stroke: #ff0000; stroke-width: 1.5"/>
    <path clip-path="url(#pa871e2bfff)" style="fill: none; stroke: #ff0000; stroke-width: 1.5"/>
    <path clip-path="url(#pa871e2bfff)" style="fill: none; stroke: #ff0000; stroke-width: 1.5"/>
    <path d="M 395.049754 167.919129 
L 395.049754 80.638628 
" clip-path="url(#pa871e2bfff)" style="fill: none; stroke: #ff0000; stroke-width: 1.5"/>
    <path clip-path="url(#pa871e2bfff)" style="fill: none; stroke: #ff0000; stroke-width: 1.5"/>
    <path clip-path="url(#pa871e2bfff)" style="fill: none; stroke: #ff0000; stroke-width: 1.5"/>
   </g>
   <g id="line2d_33">
    <defs>
     <path id="m55b05183bc" d="M 0 5 
L 0 -5 
" style="stroke: #ff0000"/>
    </defs>
    <g clip-path="url(#pa871e2bfff)">
     <use xlink:href="#m55b05183bc" x="391.612235" y="124.278878" style="fill: #ff0000; stroke: #ff0000"/>
    </g>
   </g>
   <g id="line2d_34">
    <g clip-path="url(#pa871e2bfff)">
     <use xlink:href="#m55b05183bc" x="398.487273" y="124.278878" style="fill: #ff0000; stroke: #ff0000"/>
    </g>
   </g>
   <g id="line2d_35">
    <defs>
     <path id="m80cd169626" d="M 5 0 
L -5 -0 
" style="stroke: #ff0000"/>
    </defs>
    <g clip-path="url(#pa871e2bfff)">
     <use xlink:href="#m80cd169626" x="395.049754" y="167.919129" style="fill: #ff0000; stroke: #ff0000"/>
    </g>
   </g>
   <g id="line2d_36">
    <g clip-path="url(#pa871e2bfff)">
     <use xlink:href="#m80cd169626" x="395.049754" y="80.638628" style="fill: #ff0000; stroke: #ff0000"/>
    </g>
   </g>
   <g id="line2d_37">
    <path d="M 397.341433 114.909948 
L 396.895829 114.909948 
L 396.450225 114.909948 
L 396.00462 114.909948 
L 395.559016 114.909948 
L 395.113412 114.909948 
L 394.667807 114.909948 
L 394.260398 114.909948 
L 393.852988 114.909948 
L 393.445579 114.909948 
L 393.038169 114.909948 
L 392.630759 114.909948 
L 392.22335 114.909948 
L 391.81594 114.909948 
L 391.40853 114.909948 
L 391.001121 114.909948 
L 390.593711 114.909948 
L 390.186302 114.909948 
L 389.778892 114.909948 
L 389.371482 114.909948 
L 388.964073 114.909948 
L 388.556663 117.68539 
L 387.207119 127.277725 
L 385.857574 133.962952 
L 384.50803 139.667632 
L 383.171217 144.860799 
L 381.821673 149.709699 
L 380.472128 154.283089 
L 379.122584 158.643935 
L 377.93855 161.999757 
L 376.754516 165.095351 
L 375.570481 168.066069 
L 371.279949 169.279313 
L 367.040342 167.816282 
L 362.83893 165.206166 
L 359.859748 169.170734 
L 356.893296 174.059182 
L 353.914113 178.695323 
L 350.93493 182.788869 
L 347.968479 186.540823 
L 344.989296 190.010357 
L 342.022845 193.210895 
L 339.043662 196.141109 
L 336.064479 198.83905 
L 333.098028 201.313958 
L 330.118845 203.587072 
L 323.192881 206.885463 
L 316.266918 209.462316 
L 309.340954 211.57029 
L 302.41499 213.372276 
L 295.489027 214.93795 
L 292.929985 217.06272 
L 290.370943 219.490212 
L 287.811902 221.917267 
L 285.25286 224.217469 
L 282.693818 226.384072 
L 280.134776 228.388338 
L 277.575735 230.257744 
L 275.016693 232.007428 
L 272.457651 233.630203 
L 269.89861 235.161651 
L 267.339568 236.61475 
L 264.780526 238.001934 
L 262.221484 239.324783 
L 259.662443 240.605358 
L 257.103401 241.844566 
L 254.557091 243.053396 
L 251.998049 244.242483 
L 249.439007 245.422126 
L 246.879966 246.582547 
L 244.320924 247.733877 
L 241.761882 248.876212 
L 239.202841 250.019294 
L 236.783846 251.124693 
L 234.364851 252.240672 
L 231.958588 253.357448 
L 229.539594 254.484245 
L 227.120599 255.611432 
L 224.714336 256.738881 
L 222.295341 257.866467 
L 219.723568 259.0665 
L 217.151795 260.265211 
L 214.580021 261.453588 
L 212.02098 262.649389 
L 209.449206 263.834788 
L 206.877433 265.027236 
L 204.394781 266.166264 
L 201.912128 267.304206 
L 199.429476 268.432506 
L 196.946824 269.559648 
L 194.464171 270.677223 
L 191.981519 271.785337 
L 189.498866 272.884099 
L 187.016214 273.973612 
L 184.533561 275.062008 
L 182.050909 276.133267 
L 178.969874 274.724384 
L 176.079812 272.286673 
L 173.317065 269.400414 
L 170.694366 266.286505 
L 168.160787 263.036878 
L 165.703598 259.698696 
L 163.335529 256.287139 
L 161.031119 252.828541 
L 158.777634 249.322892 
L 156.587807 245.780152 
L 146.580809 238.940572 
L 136.790246 233.802307 
L 127.177925 229.198539 
L 117.731114 224.855725 
L 108.437082 220.64987 
L 99.295829 216.525078 
L 95.52729 213.555079 
L 91.809677 210.258958 
L 88.130259 206.860133 
L 84.501767 203.393379 
L 80.91147 199.909588 
L 77.359367 196.410043 
L 73.832727 192.882384 
" clip-path="url(#pa871e2bfff)" style="fill: none; stroke: #ff7f0e; stroke-width: 1.5; stroke-linecap: square"/>
   </g>
   <g id="line2d_38">
    <defs>
     <path id="me5ea2a431e" d="M 0 3 
C 0.795609 3 1.55874 2.683901 2.12132 2.12132 
C 2.683901 1.55874 3 0.795609 3 0 
C 3 -0.795609 2.683901 -1.55874 2.12132 -2.12132 
C 1.55874 -2.683901 0.795609 -3 0 -3 
C -0.795609 -3 -1.55874 -2.683901 -2.12132 -2.12132 
C -2.683901 -1.55874 -3 -0.795609 -3 0 
C -3 0.795609 -2.683901 1.55874 -2.12132 2.12132 
C -1.55874 2.683901 -0.795609 3 0 3 
z
" style="stroke: #ff0000"/>
    </defs>
    <g clip-path="url(#pa871e2bfff)">
     <use xlink:href="#me5ea2a431e" x="395.049754" y="124.278878" style="fill: #ff0000; stroke: #ff0000"/>
    </g>
   </g>
   <g id="patch_5">
    <path d="M 57.6 307.584 
L 57.6 41.472 
" style="fill: none; stroke: #000000; stroke-width: 0.8; stroke-linejoin: miter; stroke-linecap: square"/>
   </g>
   <g id="patch_6">
    <path d="M 414.72 307.584 
L 414.72 41.472 
" style="fill: none; stroke: #000000; stroke-width: 0.8; stroke-linejoin: miter; stroke-linecap: square"/>
   </g>
   <g id="patch_7">
    <path d="M 57.6 307.584 
L 414.72 307.584 
" style="fill: none; stroke: #000000; stroke-width: 0.8; stroke-linejoin: miter; stroke-linecap: square"/>
   </g>
   <g id="patch_8">
    <path d="M 57.6 41.472 
L 414.72 41.472 
" style="fill: none; stroke: #000000; stroke-width: 0.8; stroke-linejoin: miter; stroke-linecap: square"/>
   </g>
   <g id="legend_1">
    <g id="patch_9">
     <path d="M 64.6 93.506375 
L 283.765625 93.506375 
Q 285.765625 93.506375 285.765625 91.506375 
L 285.765625 48.472 
Q 285.765625 46.472 283.765625 46.472 
L 64.6 46.472 
Q 62.6 46.472 62.6 48.472 
L 62.6 91.506375 
Q 62.6 93.506375 64.6 93.506375 
z
" style="fill: #ffffff; opacity: 0.8; stroke: #cccccc; stroke-linejoin: miter"/>
    </g>
    <g id="line2d_39">
     <path d="M 66.6 54.570438 
L 76.6 54.570438 
L 86.6 54.570438 
" style="fill: none; stroke: #1f77b4; stroke-width: 1.5; stroke-linecap: square"/>
    </g>
    <g id="text_35">
     <!-- foreward-modeled data -->
     <g transform="translate(94.6 58.070438)scale(0.1 -0.1)">
      <defs>
       <path id="DejaVuSans-66" d="M 2375 4863 
L 2375 4384 
L 1825 4384 
Q 1516 4384 1395 4259 
Q 1275 4134 1275 3809 
L 1275 3500 
L 2222 3500 
L 2222 3053 
L 1275 3053 
L 1275 0 
L 697 0 
L 697 3053 
L 147 3053 
L 147 3500 
L 697 3500 
L 697 3744 
Q 697 4328 969 4595 
Q 1241 4863 1831 4863 
L 2375 4863 
z
" transform="scale(0.015625)"/>
       <path id="DejaVuSans-6f" d="M 1959 3097 
Q 1497 3097 1228 2736 
Q 959 2375 959 1747 
Q 959 1119 1226 758 
Q 1494 397 1959 397 
Q 2419 397 2687 759 
Q 2956 1122 2956 1747 
Q 2956 2369 2687 2733 
Q 2419 3097 1959 3097 
z
M 1959 3584 
Q 2709 3584 3137 3096 
Q 3566 2609 3566 1747 
Q 3566 888 3137 398 
Q 2709 -91 1959 -91 
Q 1206 -91 779 398 
Q 353 888 353 1747 
Q 353 2609 779 3096 
Q 1206 3584 1959 3584 
z
" transform="scale(0.015625)"/>
       <path id="DejaVuSans-77" d="M 269 3500 
L 844 3500 
L 1563 769 
L 2278 3500 
L 2956 3500 
L 3675 769 
L 4391 3500 
L 4966 3500 
L 4050 0 
L 3372 0 
L 2619 2869 
L 1863 0 
L 1184 0 
L 269 3500 
z
" transform="scale(0.015625)"/>
       <path id="DejaVuSans-64" d="M 2906 2969 
L 2906 4863 
L 3481 4863 
L 3481 0 
L 2906 0 
L 2906 525 
Q 2725 213 2448 61 
Q 2172 -91 1784 -91 
Q 1150 -91 751 415 
Q 353 922 353 1747 
Q 353 2572 751 3078 
Q 1150 3584 1784 3584 
Q 2172 3584 2448 3432 
Q 2725 3281 2906 2969 
z
M 947 1747 
Q 947 1113 1208 752 
Q 1469 391 1925 391 
Q 2381 391 2643 752 
Q 2906 1113 2906 1747 
Q 2906 2381 2643 2742 
Q 2381 3103 1925 3103 
Q 1469 3103 1208 2742 
Q 947 2381 947 1747 
z
" transform="scale(0.015625)"/>
       <path id="DejaVuSans-2d" d="M 313 2009 
L 1997 2009 
L 1997 1497 
L 313 1497 
L 313 2009 
z
" transform="scale(0.015625)"/>
       <path id="DejaVuSans-6c" d="M 603 4863 
L 1178 4863 
L 1178 0 
L 603 0 
L 603 4863 
z
" transform="scale(0.015625)"/>
      </defs>
      <use xlink:href="#DejaVuSans-66"/>
      <use xlink:href="#DejaVuSans-6f" x="35.205078"/>
      <use xlink:href="#DejaVuSans-72" x="96.386719"/>
      <use xlink:href="#DejaVuSans-65" x="135.25"/>
      <use xlink:href="#DejaVuSans-77" x="196.773438"/>
      <use xlink:href="#DejaVuSans-61" x="278.560547"/>
      <use xlink:href="#DejaVuSans-72" x="339.839844"/>
      <use xlink:href="#DejaVuSans-64" x="379.203125"/>
      <use xlink:href="#DejaVuSans-2d" x="442.679688"/>
      <use xlink:href="#DejaVuSans-6d" x="478.763672"/>
      <use xlink:href="#DejaVuSans-6f" x="576.175781"/>
      <use xlink:href="#DejaVuSans-64" x="637.357422"/>
      <use xlink:href="#DejaVuSans-65" x="700.833984"/>
      <use xlink:href="#DejaVuSans-6c" x="762.357422"/>
      <use xlink:href="#DejaVuSans-65" x="790.140625"/>
      <use xlink:href="#DejaVuSans-64" x="851.664062"/>
      <use xlink:href="#DejaVuSans-20" x="915.140625"/>
      <use xlink:href="#DejaVuSans-64" x="946.927734"/>
      <use xlink:href="#DejaVuSans-61" x="1010.404297"/>
      <use xlink:href="#DejaVuSans-74" x="1071.683594"/>
      <use xlink:href="#DejaVuSans-61" x="1110.892578"/>
     </g>
    </g>
    <g id="line2d_40">
     <path d="M 66.6 69.248563 
L 76.6 69.248563 
L 86.6 69.248563 
" style="fill: none; stroke: #ff7f0e; stroke-width: 1.5; stroke-linecap: square"/>
    </g>
    <g id="text_36">
     <!-- equilibrium values at each time point -->
     <g transform="translate(94.6 72.748563)scale(0.1 -0.1)">
      <defs>
       <path id="DejaVuSans-71" d="M 947 1747 
Q 947 1113 1208 752 
Q 1469 391 1925 391 
Q 2381 391 2643 752 
Q 2906 1113 2906 1747 
Q 2906 2381 2643 2742 
Q 2381 3103 1925 3103 
Q 1469 3103 1208 2742 
Q 947 2381 947 1747 
z
M 2906 525 
Q 2725 213 2448 61 
Q 2172 -91 1784 -91 
Q 1150 -91 751 415 
Q 353 922 353 1747 
Q 353 2572 751 3078 
Q 1150 3584 1784 3584 
Q 2172 3584 2448 3432 
Q 2725 3281 2906 2969 
L 2906 3500 
L 3481 3500 
L 3481 -1331 
L 2906 -1331 
L 2906 525 
z
" transform="scale(0.015625)"/>
       <path id="DejaVuSans-62" d="M 3116 1747 
Q 3116 2381 2855 2742 
Q 2594 3103 2138 3103 
Q 1681 3103 1420 2742 
Q 1159 2381 1159 1747 
Q 1159 1113 1420 752 
Q 1681 391 2138 391 
Q 2594 391 2855 752 
Q 3116 1113 3116 1747 
z
M 1159 2969 
Q 1341 3281 1617 3432 
Q 1894 3584 2278 3584 
Q 2916 3584 3314 3078 
Q 3713 2572 3713 1747 
Q 3713 922 3314 415 
Q 2916 -91 2278 -91 
Q 1894 -91 1617 61 
Q 1341 213 1159 525 
L 1159 0 
L 581 0 
L 581 4863 
L 1159 4863 
L 1159 2969 
z
" transform="scale(0.015625)"/>
       <path id="DejaVuSans-76" d="M 191 3500 
L 800 3500 
L 1894 563 
L 2988 3500 
L 3597 3500 
L 2284 0 
L 1503 0 
L 191 3500 
z
" transform="scale(0.015625)"/>
       <path id="DejaVuSans-73" d="M 2834 3397 
L 2834 2853 
Q 2591 2978 2328 3040 
Q 2066 3103 1784 3103 
Q 1356 3103 1142 2972 
Q 928 2841 928 2578 
Q 928 2378 1081 2264 
Q 1234 2150 1697 2047 
L 1894 2003 
Q 2506 1872 2764 1633 
Q 3022 1394 3022 966 
Q 3022 478 2636 193 
Q 2250 -91 1575 -91 
Q 1294 -91 989 -36 
Q 684 19 347 128 
L 347 722 
Q 666 556 975 473 
Q 1284 391 1588 391 
Q 1994 391 2212 530 
Q 2431 669 2431 922 
Q 2431 1156 2273 1281 
Q 2116 1406 1581 1522 
L 1381 1569 
Q 847 1681 609 1914 
Q 372 2147 372 2553 
Q 372 3047 722 3315 
Q 1072 3584 1716 3584 
Q 2034 3584 2315 3537 
Q 2597 3491 2834 3397 
z
" transform="scale(0.015625)"/>
       <path id="DejaVuSans-63" d="M 3122 3366 
L 3122 2828 
Q 2878 2963 2633 3030 
Q 2388 3097 2138 3097 
Q 1578 3097 1268 2742 
Q 959 2388 959 1747 
Q 959 1106 1268 751 
Q 1578 397 2138 397 
Q 2388 397 2633 464 
Q 2878 531 3122 666 
L 3122 134 
Q 2881 22 2623 -34 
Q 2366 -91 2075 -91 
Q 1284 -91 818 406 
Q 353 903 353 1747 
Q 353 2603 823 3093 
Q 1294 3584 2113 3584 
Q 2378 3584 2631 3529 
Q 2884 3475 3122 3366 
z
" transform="scale(0.015625)"/>
       <path id="DejaVuSans-68" d="M 3513 2113 
L 3513 0 
L 2938 0 
L 2938 2094 
Q 2938 2591 2744 2837 
Q 2550 3084 2163 3084 
Q 1697 3084 1428 2787 
Q 1159 2491 1159 1978 
L 1159 0 
L 581 0 
L 581 4863 
L 1159 4863 
L 1159 2956 
Q 1366 3272 1645 3428 
Q 1925 3584 2291 3584 
Q 2894 3584 3203 3211 
Q 3513 2838 3513 2113 
z
" transform="scale(0.015625)"/>
       <path id="DejaVuSans-6e" d="M 3513 2113 
L 3513 0 
L 2938 0 
L 2938 2094 
Q 2938 2591 2744 2837 
Q 2550 3084 2163 3084 
Q 1697 3084 1428 2787 
Q 1159 2491 1159 1978 
L 1159 0 
L 581 0 
L 581 3500 
L 1159 3500 
L 1159 2956 
Q 1366 3272 1645 3428 
Q 1925 3584 2291 3584 
Q 2894 3584 3203 3211 
Q 3513 2838 3513 2113 
z
" transform="scale(0.015625)"/>
      </defs>
      <use xlink:href="#DejaVuSans-65"/>
      <use xlink:href="#DejaVuSans-71" x="61.523438"/>
      <use xlink:href="#DejaVuSans-75" x="125"/>
      <use xlink:href="#DejaVuSans-69" x="188.378906"/>
      <use xlink:href="#DejaVuSans-6c" x="216.162109"/>
      <use xlink:href="#DejaVuSans-69" x="243.945312"/>
      <use xlink:href="#DejaVuSans-62" x="271.728516"/>
      <use xlink:href="#DejaVuSans-72" x="335.205078"/>
      <use xlink:href="#DejaVuSans-69" x="376.318359"/>
      <use xlink:href="#DejaVuSans-75" x="404.101562"/>
      <use xlink:href="#DejaVuSans-6d" x="467.480469"/>
      <use xlink:href="#DejaVuSans-20" x="564.892578"/>
      <use xlink:href="#DejaVuSans-76" x="596.679688"/>
      <use xlink:href="#DejaVuSans-61" x="655.859375"/>
      <use xlink:href="#DejaVuSans-6c" x="717.138672"/>
      <use xlink:href="#DejaVuSans-75" x="744.921875"/>
      <use xlink:href="#DejaVuSans-65" x="808.300781"/>
      <use xlink:href="#DejaVuSans-73" x="869.824219"/>
      <use xlink:href="#DejaVuSans-20" x="921.923828"/>
      <use xlink:href="#DejaVuSans-61" x="953.710938"/>
      <use xlink:href="#DejaVuSans-74" x="1014.990234"/>
      <use xlink:href="#DejaVuSans-20" x="1054.199219"/>
      <use xlink:href="#DejaVuSans-65" x="1085.986328"/>
      <use xlink:href="#DejaVuSans-61" x="1147.509766"/>
      <use xlink:href="#DejaVuSans-63" x="1208.789062"/>
      <use xlink:href="#DejaVuSans-68" x="1263.769531"/>
      <use xlink:href="#DejaVuSans-20" x="1327.148438"/>
      <use xlink:href="#DejaVuSans-74" x="1358.935547"/>
      <use xlink:href="#DejaVuSans-69" x="1398.144531"/>
      <use xlink:href="#DejaVuSans-6d" x="1425.927734"/>
      <use xlink:href="#DejaVuSans-65" x="1523.339844"/>
      <use xlink:href="#DejaVuSans-20" x="1584.863281"/>
      <use xlink:href="#DejaVuSans-70" x="1616.650391"/>
      <use xlink:href="#DejaVuSans-6f" x="1680.126953"/>
      <use xlink:href="#DejaVuSans-69" x="1741.308594"/>
      <use xlink:href="#DejaVuSans-6e" x="1769.091797"/>
      <use xlink:href="#DejaVuSans-74" x="1832.470703"/>
     </g>
    </g>
    <g id="LineCollection_3">
     <path d="M 71.6 83.926688 
L 81.6 83.926688 
" style="fill: none; stroke: #ff0000; stroke-width: 1.5"/>
    </g>
    <g id="LineCollection_4">
     <path d="M 76.6 88.926688 
L 76.6 78.926688 
" style="fill: none; stroke: #ff0000; stroke-width: 1.5"/>
    </g>
    <g id="line2d_41">
     <g>
      <use xlink:href="#m55b05183bc" x="71.6" y="83.926688" style="fill: #ff0000; stroke: #ff0000"/>
     </g>
    </g>
    <g id="line2d_42">
     <g>
      <use xlink:href="#m55b05183bc" x="81.6" y="83.926688" style="fill: #ff0000; stroke: #ff0000"/>
     </g>
    </g>
    <g id="line2d_43">
     <g>
      <use xlink:href="#m80cd169626" x="76.6" y="88.926688" style="fill: #ff0000; stroke: #ff0000"/>
     </g>
    </g>
    <g id="line2d_44">
     <g>
      <use xlink:href="#m80cd169626" x="76.6" y="78.926688" style="fill: #ff0000; stroke: #ff0000"/>
     </g>
    </g>
    <g id="line2d_45"/>
    <g id="line2d_46">
     <g>
      <use xlink:href="#me5ea2a431e" x="76.6" y="83.926688" style="fill: #ff0000; stroke: #ff0000"/>
     </g>
    </g>
    <g id="text_37">
     <!-- Dolomite Data -->
     <g transform="translate(94.6 87.426688)scale(0.1 -0.1)">
      <use xlink:href="#DejaVuSans-44"/>
      <use xlink:href="#DejaVuSans-6f" x="77.001953"/>
      <use xlink:href="#DejaVuSans-6c" x="138.183594"/>
      <use xlink:href="#DejaVuSans-6f" x="165.966797"/>
      <use xlink:href="#DejaVuSans-6d" x="227.148438"/>
      <use xlink:href="#DejaVuSans-69" x="324.560547"/>
      <use xlink:href="#DejaVuSans-74" x="352.34375"/>
      <use xlink:href="#DejaVuSans-65" x="391.552734"/>
      <use xlink:href="#DejaVuSans-20" x="453.076172"/>
      <use xlink:href="#DejaVuSans-44" x="484.863281"/>
      <use xlink:href="#DejaVuSans-61" x="561.865234"/>
      <use xlink:href="#DejaVuSans-74" x="623.144531"/>
      <use xlink:href="#DejaVuSans-61" x="662.353516"/>
     </g>
    </g>
   </g>
  </g>
 </g>
 <defs>
  <clipPath id="pa871e2bfff">
   <rect x="57.6" y="41.472" width="357.12" height="266.112"/>
  </clipPath>
 </defs>
</svg>
