<?xml version="1.0" encoding="utf-8" standalone="no"?>
<!DOCTYPE svg PUBLIC "-//W3C//DTD SVG 1.1//EN"
  "http://www.w3.org/Graphics/SVG/1.1/DTD/svg11.dtd">
<svg xmlns:xlink="http://www.w3.org/1999/xlink" width="460.8pt" height="345.6pt" viewBox="0 0 460.8 345.6" xmlns="http://www.w3.org/2000/svg" version="1.1">
 <metadata>
  <rdf:RDF xmlns:dc="http://purl.org/dc/elements/1.1/" xmlns:cc="http://creativecommons.org/ns#" xmlns:rdf="http://www.w3.org/1999/02/22-rdf-syntax-ns#">
   <cc:Work>
    <dc:type rdf:resource="http://purl.org/dc/dcmitype/StillImage"/>
    <dc:date>2025-10-05T16:57:23.647616</dc:date>
    <dc:format>image/svg+xml</dc:format>
    <dc:creator>
     <cc:Agent>
      <dc:title>Matplotlib v3.5.3, https://matplotlib.org/</dc:title>
     </cc:Agent>
    </dc:creator>
   </cc:Work>
  </rdf:RDF>
 </metadata>
 <defs>
  <style type="text/css">*{stroke-linejoin: round; stroke-linecap: butt}</style>
 </defs>
 <g id="figure_1">
  <g id="patch_1">
   <path d="M 0 345.6 
L 460.8 345.6 
L 460.8 0 
L 0 0 
z
" style="fill: #ffffff"/>
  </g>
  <g id="axes_1">
   <g id="patch_2">
    <path d="M 57.6 307.584 
L 414.72 307.584 
L 414.72 41.472 
L 57.6 41.472 
z
" style="fill: #ffffff"/>
   </g>
   <g id="axes_2">
    <g id="patch_3">
     <path d="M 414.72 307.584 
L 414.72 307.584 
L 414.72 41.472 
L 414.72 41.472 
z
" style="fill: #ffffff"/>
    </g>
    <g id="matplotlib.axis_1"/>
    <g id="matplotlib.axis_2">
     <g id="ytick_1">
      <g id="line2d_1">
       <defs>
        <path id="ma13fafc86a" d="M 0 0 
L 3.5 0 
" style="stroke: #000000; stroke-width: 0.8"/>
       </defs>
       <g>
        <use xlink:href="#ma13fafc86a" x="414.72" y="46.58592" style="stroke: #000000; stroke-width: 0.8"/>
       </g>
      </g>
      <g id="text_1">
       <!-- 0 -->
       <g transform="translate(421.72 50.385139)scale(0.1 -0.1)">
        <defs>
         <path id="DejaVuSans-30" d="M 2034 4250 
Q 1547 4250 1301 3770 
Q 1056 3291 1056 2328 
Q 1056 1369 1301 889 
Q 1547 409 2034 409 
Q 2525 409 2770 889 
Q 3016 1369 3016 2328 
Q 3016 3291 2770 3770 
Q 2525 4250 2034 4250 
z
M 2034 4750 
Q 2819 4750 3233 4129 
Q 3647 3509 3647 2328 
Q 3647 1150 3233 529 
Q 2819 -91 2034 -91 
Q 1250 -91 836 529 
Q 422 1150 422 2328 
Q 422 3509 836 4129 
Q 1250 4750 2034 4750 
z
" transform="scale(0.015625)"/>
        </defs>
        <use xlink:href="#DejaVuSans-30"/>
       </g>
      </g>
     </g>
     <g id="ytick_2">
      <g id="line2d_2">
       <g>
        <use xlink:href="#ma13fafc86a" x="414.72" y="69.975281" style="stroke: #000000; stroke-width: 0.8"/>
       </g>
      </g>
      <g id="text_2">
       <!-- 10 -->
       <g transform="translate(421.72 73.7745)scale(0.1 -0.1)">
        <defs>
         <path id="DejaVuSans-31" d="M 794 531 
L 1825 531 
L 1825 4091 
L 703 3866 
L 703 4441 
L 1819 4666 
L 2450 4666 
L 2450 531 
L 3481 531 
L 3481 0 
L 794 0 
L 794 531 
z
" transform="scale(0.015625)"/>
        </defs>
        <use xlink:href="#DejaVuSans-31"/>
        <use xlink:href="#DejaVuSans-30" x="63.623047"/>
       </g>
      </g>
     </g>
     <g id="ytick_3">
      <g id="line2d_3">
       <g>
        <use xlink:href="#ma13fafc86a" x="414.72" y="90.765824" style="stroke: #000000; stroke-width: 0.8"/>
       </g>
      </g>
      <g id="text_3">
       <!-- 20 -->
       <g transform="translate(421.72 94.565043)scale(0.1 -0.1)">
        <defs>
         <path id="DejaVuSans-32" d="M 1228 531 
L 3431 531 
L 3431 0 
L 469 0 
L 469 531 
Q 828 903 1448 1529 
Q 2069 2156 2228 2338 
Q 2531 2678 2651 2914 
Q 2772 3150 2772 3378 
Q 2772 3750 2511 3984 
Q 2250 4219 1831 4219 
Q 1534 4219 1204 4116 
Q 875 4013 500 3803 
L 500 4441 
Q 881 4594 1212 4672 
Q 1544 4750 1819 4750 
Q 2544 4750 2975 4387 
Q 3406 4025 3406 3419 
Q 3406 3131 3298 2873 
Q 3191 2616 2906 2266 
Q 2828 2175 2409 1742 
Q 1991 1309 1228 531 
z
" transform="scale(0.015625)"/>
        </defs>
        <use xlink:href="#DejaVuSans-32"/>
        <use xlink:href="#DejaVuSans-30" x="63.623047"/>
       </g>
      </g>
     </g>
     <g id="ytick_4">
      <g id="line2d_4">
       <g>
        <use xlink:href="#ma13fafc86a" x="414.72" y="108.957549" style="stroke: #000000; stroke-width: 0.8"/>
       </g>
      </g>
      <g id="text_4">
       <!-- 30 -->
       <g transform="translate(421.72 112.756768)scale(0.1 -0.1)">
        <defs>
         <path id="DejaVuSans-33" d="M 2597 2516 
Q 3050 2419 3304 2112 
Q 3559 1806 3559 1356 
Q 3559 666 3084 287 
Q 2609 -91 1734 -91 
Q 1441 -91 1130 -33 
Q 819 25 488 141 
L 488 750 
Q 750 597 1062 519 
Q 1375 441 1716 441 
Q 2309 441 2620 675 
Q 2931 909 2931 1356 
Q 2931 1769 2642 2001 
Q 2353 2234 1838 2234 
L 1294 2234 
L 1294 2753 
L 1863 2753 
Q 2328 2753 2575 2939 
Q 2822 3125 2822 3475 
Q 2822 3834 2567 4026 
Q 2313 4219 1838 4219 
Q 1578 4219 1281 4162 
Q 984 4106 628 3988 
L 628 4550 
Q 988 4650 1302 4700 
Q 1616 4750 1894 4750 
Q 2613 4750 3031 4423 
Q 3450 4097 3450 3541 
Q 3450 3153 3228 2886 
Q 3006 2619 2597 2516 
z
" transform="scale(0.015625)"/>
        </defs>
        <use xlink:href="#DejaVuSans-33"/>
        <use xlink:href="#DejaVuSans-30" x="63.623047"/>
       </g>
      </g>
     </g>
     <g id="ytick_5">
      <g id="line2d_5">
       <g>
        <use xlink:href="#ma13fafc86a" x="414.72" y="127.149275" style="stroke: #000000; stroke-width: 0.8"/>
       </g>
      </g>
      <g id="text_5">
       <!-- 40 -->
       <g transform="translate(421.72 130.948493)scale(0.1 -0.1)">
        <defs>
         <path id="DejaVuSans-34" d="M 2419 4116 
L 825 1625 
L 2419 1625 
L 2419 4116 
z
M 2253 4666 
L 3047 4666 
L 3047 1625 
L 3713 1625 
L 3713 1100 
L 3047 1100 
L 3047 0 
L 2419 0 
L 2419 1100 
L 313 1100 
L 313 1709 
L 2253 4666 
z
" transform="scale(0.015625)"/>
        </defs>
        <use xlink:href="#DejaVuSans-34"/>
        <use xlink:href="#DejaVuSans-30" x="63.623047"/>
       </g>
      </g>
     </g>
     <g id="ytick_6">
      <g id="line2d_6">
       <g>
        <use xlink:href="#ma13fafc86a" x="414.72" y="142.742182" style="stroke: #000000; stroke-width: 0.8"/>
       </g>
      </g>
      <g id="text_6">
       <!-- 50 -->
       <g transform="translate(421.72 146.541401)scale(0.1 -0.1)">
        <defs>
         <path id="DejaVuSans-35" d="M 691 4666 
L 3169 4666 
L 3169 4134 
L 1269 4134 
L 1269 2991 
Q 1406 3038 1543 3061 
Q 1681 3084 1819 3084 
Q 2600 3084 3056 2656 
Q 3513 2228 3513 1497 
Q 3513 744 3044 326 
Q 2575 -91 1722 -91 
Q 1428 -91 1123 -41 
Q 819 9 494 109 
L 494 744 
Q 775 591 1075 516 
Q 1375 441 1709 441 
Q 2250 441 2565 725 
Q 2881 1009 2881 1497 
Q 2881 1984 2565 2268 
Q 2250 2553 1709 2553 
Q 1456 2553 1204 2497 
Q 953 2441 691 2322 
L 691 4666 
z
" transform="scale(0.015625)"/>
        </defs>
        <use xlink:href="#DejaVuSans-35"/>
        <use xlink:href="#DejaVuSans-30" x="63.623047"/>
       </g>
      </g>
     </g>
     <g id="ytick_7">
      <g id="line2d_7">
       <g>
        <use xlink:href="#ma13fafc86a" x="414.72" y="155.736271" style="stroke: #000000; stroke-width: 0.8"/>
       </g>
      </g>
      <g id="text_7">
       <!-- 60 -->
       <g transform="translate(421.72 159.53549)scale(0.1 -0.1)">
        <defs>
         <path id="DejaVuSans-36" d="M 2113 2584 
Q 1688 2584 1439 2293 
Q 1191 2003 1191 1497 
Q 1191 994 1439 701 
Q 1688 409 2113 409 
Q 2538 409 2786 701 
Q 3034 994 3034 1497 
Q 3034 2003 2786 2293 
Q 2538 2584 2113 2584 
z
M 3366 4563 
L 3366 3988 
Q 3128 4100 2886 4159 
Q 2644 4219 2406 4219 
Q 1781 4219 1451 3797 
Q 1122 3375 1075 2522 
Q 1259 2794 1537 2939 
Q 1816 3084 2150 3084 
Q 2853 3084 3261 2657 
Q 3669 2231 3669 1497 
Q 3669 778 3244 343 
Q 2819 -91 2113 -91 
Q 1303 -91 875 529 
Q 447 1150 447 2328 
Q 447 3434 972 4092 
Q 1497 4750 2381 4750 
Q 2619 4750 2861 4703 
Q 3103 4656 3366 4563 
z
" transform="scale(0.015625)"/>
        </defs>
        <use xlink:href="#DejaVuSans-36"/>
        <use xlink:href="#DejaVuSans-30" x="63.623047"/>
       </g>
      </g>
     </g>
     <g id="ytick_8">
      <g id="line2d_8">
       <g>
        <use xlink:href="#ma13fafc86a" x="414.72" y="168.730361" style="stroke: #000000; stroke-width: 0.8"/>
       </g>
      </g>
      <g id="text_8">
       <!-- 70 -->
       <g transform="translate(421.72 172.52958)scale(0.1 -0.1)">
        <defs>
         <path id="DejaVuSans-37" d="M 525 4666 
L 3525 4666 
L 3525 4397 
L 1831 0 
L 1172 0 
L 2766 4134 
L 525 4134 
L 525 4666 
z
" transform="scale(0.015625)"/>
        </defs>
        <use xlink:href="#DejaVuSans-37"/>
        <use xlink:href="#DejaVuSans-30" x="63.623047"/>
       </g>
      </g>
     </g>
     <g id="ytick_9">
      <g id="line2d_9">
       <g>
        <use xlink:href="#ma13fafc86a" x="414.72" y="181.72445" style="stroke: #000000; stroke-width: 0.8"/>
       </g>
      </g>
      <g id="text_9">
       <!-- 80 -->
       <g transform="translate(421.72 185.523669)scale(0.1 -0.1)">
        <defs>
         <path id="DejaVuSans-38" d="M 2034 2216 
Q 1584 2216 1326 1975 
Q 1069 1734 1069 1313 
Q 1069 891 1326 650 
Q 1584 409 2034 409 
Q 2484 409 2743 651 
Q 3003 894 3003 1313 
Q 3003 1734 2745 1975 
Q 2488 2216 2034 2216 
z
M 1403 2484 
Q 997 2584 770 2862 
Q 544 3141 544 3541 
Q 544 4100 942 4425 
Q 1341 4750 2034 4750 
Q 2731 4750 3128 4425 
Q 3525 4100 3525 3541 
Q 3525 3141 3298 2862 
Q 3072 2584 2669 2484 
Q 3125 2378 3379 2068 
Q 3634 1759 3634 1313 
Q 3634 634 3220 271 
Q 2806 -91 2034 -91 
Q 1263 -91 848 271 
Q 434 634 434 1313 
Q 434 1759 690 2068 
Q 947 2378 1403 2484 
z
M 1172 3481 
Q 1172 3119 1398 2916 
Q 1625 2713 2034 2713 
Q 2441 2713 2670 2916 
Q 2900 3119 2900 3481 
Q 2900 3844 2670 4047 
Q 2441 4250 2034 4250 
Q 1625 4250 1398 4047 
Q 1172 3844 1172 3481 
z
" transform="scale(0.015625)"/>
        </defs>
        <use xlink:href="#DejaVuSans-38"/>
        <use xlink:href="#DejaVuSans-30" x="63.623047"/>
       </g>
      </g>
     </g>
     <g id="ytick_10">
      <g id="line2d_10">
       <g>
        <use xlink:href="#ma13fafc86a" x="414.72" y="192.119722" style="stroke: #000000; stroke-width: 0.8"/>
       </g>
      </g>
      <g id="text_10">
       <!-- 90 -->
       <g transform="translate(421.72 195.918941)scale(0.1 -0.1)">
        <defs>
         <path id="DejaVuSans-39" d="M 703 97 
L 703 672 
Q 941 559 1184 500 
Q 1428 441 1663 441 
Q 2288 441 2617 861 
Q 2947 1281 2994 2138 
Q 2813 1869 2534 1725 
Q 2256 1581 1919 1581 
Q 1219 1581 811 2004 
Q 403 2428 403 3163 
Q 403 3881 828 4315 
Q 1253 4750 1959 4750 
Q 2769 4750 3195 4129 
Q 3622 3509 3622 2328 
Q 3622 1225 3098 567 
Q 2575 -91 1691 -91 
Q 1453 -91 1209 -44 
Q 966 3 703 97 
z
M 1959 2075 
Q 2384 2075 2632 2365 
Q 2881 2656 2881 3163 
Q 2881 3666 2632 3958 
Q 2384 4250 1959 4250 
Q 1534 4250 1286 3958 
Q 1038 3666 1038 3163 
Q 1038 2656 1286 2365 
Q 1534 2075 1959 2075 
z
" transform="scale(0.015625)"/>
        </defs>
        <use xlink:href="#DejaVuSans-39"/>
        <use xlink:href="#DejaVuSans-30" x="63.623047"/>
       </g>
      </g>
     </g>
     <g id="ytick_11">
      <g id="line2d_11">
       <g>
        <use xlink:href="#ma13fafc86a" x="414.72" y="202.514993" style="stroke: #000000; stroke-width: 0.8"/>
       </g>
      </g>
      <g id="text_11">
       <!-- 100 -->
       <g transform="translate(421.72 206.314212)scale(0.1 -0.1)">
        <use xlink:href="#DejaVuSans-31"/>
        <use xlink:href="#DejaVuSans-30" x="63.623047"/>
        <use xlink:href="#DejaVuSans-30" x="127.246094"/>
       </g>
      </g>
     </g>
     <g id="ytick_12">
      <g id="line2d_12">
       <g>
        <use xlink:href="#ma13fafc86a" x="414.72" y="210.311447" style="stroke: #000000; stroke-width: 0.8"/>
       </g>
      </g>
      <g id="text_12">
       <!-- 110 -->
       <g transform="translate(421.72 214.110666)scale(0.1 -0.1)">
        <use xlink:href="#DejaVuSans-31"/>
        <use xlink:href="#DejaVuSans-31" x="63.623047"/>
        <use xlink:href="#DejaVuSans-30" x="127.246094"/>
       </g>
      </g>
     </g>
     <g id="ytick_13">
      <g id="line2d_13">
       <g>
        <use xlink:href="#ma13fafc86a" x="414.72" y="220.706719" style="stroke: #000000; stroke-width: 0.8"/>
       </g>
      </g>
      <g id="text_13">
       <!-- 120 -->
       <g transform="translate(421.72 224.505937)scale(0.1 -0.1)">
        <use xlink:href="#DejaVuSans-31"/>
        <use xlink:href="#DejaVuSans-32" x="63.623047"/>
        <use xlink:href="#DejaVuSans-30" x="127.246094"/>
       </g>
      </g>
     </g>
     <g id="ytick_14">
      <g id="line2d_14">
       <g>
        <use xlink:href="#ma13fafc86a" x="414.72" y="228.503172" style="stroke: #000000; stroke-width: 0.8"/>
       </g>
      </g>
      <g id="text_14">
       <!-- 130 -->
       <g transform="translate(421.72 232.302391)scale(0.1 -0.1)">
        <use xlink:href="#DejaVuSans-31"/>
        <use xlink:href="#DejaVuSans-33" x="63.623047"/>
        <use xlink:href="#DejaVuSans-30" x="127.246094"/>
       </g>
      </g>
     </g>
     <g id="ytick_15">
      <g id="line2d_15">
       <g>
        <use xlink:href="#ma13fafc86a" x="414.72" y="236.299626" style="stroke: #000000; stroke-width: 0.8"/>
       </g>
      </g>
      <g id="text_15">
       <!-- 140 -->
       <g transform="translate(421.72 240.098845)scale(0.1 -0.1)">
        <use xlink:href="#DejaVuSans-31"/>
        <use xlink:href="#DejaVuSans-34" x="63.623047"/>
        <use xlink:href="#DejaVuSans-30" x="127.246094"/>
       </g>
      </g>
     </g>
     <g id="ytick_16">
      <g id="line2d_16">
       <g>
        <use xlink:href="#ma13fafc86a" x="414.72" y="241.497262" style="stroke: #000000; stroke-width: 0.8"/>
       </g>
      </g>
      <g id="text_16">
       <!-- 150 -->
       <g transform="translate(421.72 245.296481)scale(0.1 -0.1)">
        <use xlink:href="#DejaVuSans-31"/>
        <use xlink:href="#DejaVuSans-35" x="63.623047"/>
        <use xlink:href="#DejaVuSans-30" x="127.246094"/>
       </g>
      </g>
     </g>
     <g id="ytick_17">
      <g id="line2d_17">
       <g>
        <use xlink:href="#ma13fafc86a" x="414.72" y="249.293716" style="stroke: #000000; stroke-width: 0.8"/>
       </g>
      </g>
      <g id="text_17">
       <!-- 160 -->
       <g transform="translate(421.72 253.092934)scale(0.1 -0.1)">
        <use xlink:href="#DejaVuSans-31"/>
        <use xlink:href="#DejaVuSans-36" x="63.623047"/>
        <use xlink:href="#DejaVuSans-30" x="127.246094"/>
       </g>
      </g>
     </g>
     <g id="ytick_18">
      <g id="line2d_18">
       <g>
        <use xlink:href="#ma13fafc86a" x="414.72" y="254.491351" style="stroke: #000000; stroke-width: 0.8"/>
       </g>
      </g>
      <g id="text_18">
       <!-- 170 -->
       <g transform="translate(421.72 258.29057)scale(0.1 -0.1)">
        <use xlink:href="#DejaVuSans-31"/>
        <use xlink:href="#DejaVuSans-37" x="63.623047"/>
        <use xlink:href="#DejaVuSans-30" x="127.246094"/>
       </g>
      </g>
     </g>
     <g id="ytick_19">
      <g id="line2d_19">
       <g>
        <use xlink:href="#ma13fafc86a" x="414.72" y="259.688987" style="stroke: #000000; stroke-width: 0.8"/>
       </g>
      </g>
      <g id="text_19">
       <!-- 180 -->
       <g transform="translate(421.72 263.488206)scale(0.1 -0.1)">
        <use xlink:href="#DejaVuSans-31"/>
        <use xlink:href="#DejaVuSans-38" x="63.623047"/>
        <use xlink:href="#DejaVuSans-30" x="127.246094"/>
       </g>
      </g>
     </g>
     <g id="ytick_20">
      <g id="line2d_20">
       <g>
        <use xlink:href="#ma13fafc86a" x="414.72" y="264.886623" style="stroke: #000000; stroke-width: 0.8"/>
       </g>
      </g>
      <g id="text_20">
       <!-- 190 -->
       <g transform="translate(421.72 268.685842)scale(0.1 -0.1)">
        <use xlink:href="#DejaVuSans-31"/>
        <use xlink:href="#DejaVuSans-39" x="63.623047"/>
        <use xlink:href="#DejaVuSans-30" x="127.246094"/>
       </g>
      </g>
     </g>
     <g id="ytick_21">
      <g id="line2d_21">
       <g>
        <use xlink:href="#ma13fafc86a" x="414.72" y="270.084259" style="stroke: #000000; stroke-width: 0.8"/>
       </g>
      </g>
      <g id="text_21">
       <!-- 200 -->
       <g transform="translate(421.72 273.883477)scale(0.1 -0.1)">
        <use xlink:href="#DejaVuSans-32"/>
        <use xlink:href="#DejaVuSans-30" x="63.623047"/>
        <use xlink:href="#DejaVuSans-30" x="127.246094"/>
       </g>
      </g>
     </g>
     <g id="ytick_22">
      <g id="line2d_22">
       <g>
        <use xlink:href="#ma13fafc86a" x="414.72" y="275.281894" style="stroke: #000000; stroke-width: 0.8"/>
       </g>
      </g>
      <g id="text_22">
       <!-- 210 -->
       <g transform="translate(421.72 279.081113)scale(0.1 -0.1)">
        <use xlink:href="#DejaVuSans-32"/>
        <use xlink:href="#DejaVuSans-31" x="63.623047"/>
        <use xlink:href="#DejaVuSans-30" x="127.246094"/>
       </g>
      </g>
     </g>
     <g id="ytick_23">
      <g id="line2d_23">
       <g>
        <use xlink:href="#ma13fafc86a" x="414.72" y="277.880712" style="stroke: #000000; stroke-width: 0.8"/>
       </g>
      </g>
      <g id="text_23">
       <!-- 220 -->
       <g transform="translate(421.72 281.679931)scale(0.1 -0.1)">
        <use xlink:href="#DejaVuSans-32"/>
        <use xlink:href="#DejaVuSans-32" x="63.623047"/>
        <use xlink:href="#DejaVuSans-30" x="127.246094"/>
       </g>
      </g>
     </g>
     <g id="ytick_24">
      <g id="line2d_24">
       <g>
        <use xlink:href="#ma13fafc86a" x="414.72" y="283.078348" style="stroke: #000000; stroke-width: 0.8"/>
       </g>
      </g>
      <g id="text_24">
       <!-- 230 -->
       <g transform="translate(421.72 286.877567)scale(0.1 -0.1)">
        <use xlink:href="#DejaVuSans-32"/>
        <use xlink:href="#DejaVuSans-33" x="63.623047"/>
        <use xlink:href="#DejaVuSans-30" x="127.246094"/>
       </g>
      </g>
     </g>
     <g id="ytick_25">
      <g id="line2d_25">
       <g>
        <use xlink:href="#ma13fafc86a" x="414.72" y="285.677166" style="stroke: #000000; stroke-width: 0.8"/>
       </g>
      </g>
      <g id="text_25">
       <!-- 240 -->
       <g transform="translate(421.72 289.476385)scale(0.1 -0.1)">
        <use xlink:href="#DejaVuSans-32"/>
        <use xlink:href="#DejaVuSans-34" x="63.623047"/>
        <use xlink:href="#DejaVuSans-30" x="127.246094"/>
       </g>
      </g>
     </g>
     <g id="text_26">
      <!-- Temperature (°C) -->
      <g transform="translate(452.405938 217.679563)rotate(-90)scale(0.1 -0.1)">
       <defs>
        <path id="DejaVuSans-54" d="M -19 4666 
L 3928 4666 
L 3928 4134 
L 2272 4134 
L 2272 0 
L 1638 0 
L 1638 4134 
L -19 4134 
L -19 4666 
z
" transform="scale(0.015625)"/>
        <path id="DejaVuSans-65" d="M 3597 1894 
L 3597 1613 
L 953 1613 
Q 991 1019 1311 708 
Q 1631 397 2203 397 
Q 2534 397 2845 478 
Q 3156 559 3463 722 
L 3463 178 
Q 3153 47 2828 -22 
Q 2503 -91 2169 -91 
Q 1331 -91 842 396 
Q 353 884 353 1716 
Q 353 2575 817 3079 
Q 1281 3584 2069 3584 
Q 2775 3584 3186 3129 
Q 3597 2675 3597 1894 
z
M 3022 2063 
Q 3016 2534 2758 2815 
Q 2500 3097 2075 3097 
Q 1594 3097 1305 2825 
Q 1016 2553 972 2059 
L 3022 2063 
z
" transform="scale(0.015625)"/>
        <path id="DejaVuSans-6d" d="M 3328 2828 
Q 3544 3216 3844 3400 
Q 4144 3584 4550 3584 
Q 5097 3584 5394 3201 
Q 5691 2819 5691 2113 
L 5691 0 
L 5113 0 
L 5113 2094 
Q 5113 2597 4934 2840 
Q 4756 3084 4391 3084 
Q 3944 3084 3684 2787 
Q 3425 2491 3425 1978 
L 3425 0 
L 2847 0 
L 2847 2094 
Q 2847 2600 2669 2842 
Q 2491 3084 2119 3084 
Q 1678 3084 1418 2786 
Q 1159 2488 1159 1978 
L 1159 0 
L 581 0 
L 581 3500 
L 1159 3500 
L 1159 2956 
Q 1356 3278 1631 3431 
Q 1906 3584 2284 3584 
Q 2666 3584 2933 3390 
Q 3200 3197 3328 2828 
z
" transform="scale(0.015625)"/>
        <path id="DejaVuSans-70" d="M 1159 525 
L 1159 -1331 
L 581 -1331 
L 581 3500 
L 1159 3500 
L 1159 2969 
Q 1341 3281 1617 3432 
Q 1894 3584 2278 3584 
Q 2916 3584 3314 3078 
Q 3713 2572 3713 1747 
Q 3713 922 3314 415 
Q 2916 -91 2278 -91 
Q 1894 -91 1617 61 
Q 1341 213 1159 525 
z
M 3116 1747 
Q 3116 2381 2855 2742 
Q 2594 3103 2138 3103 
Q 1681 3103 1420 2742 
Q 1159 2381 1159 1747 
Q 1159 1113 1420 752 
Q 1681 391 2138 391 
Q 2594 391 2855 752 
Q 3116 1113 3116 1747 
z
" transform="scale(0.015625)"/>
        <path id="DejaVuSans-72" d="M 2631 2963 
Q 2534 3019 2420 3045 
Q 2306 3072 2169 3072 
Q 1681 3072 1420 2755 
Q 1159 2438 1159 1844 
L 1159 0 
L 581 0 
L 581 3500 
L 1159 3500 
L 1159 2956 
Q 1341 3275 1631 3429 
Q 1922 3584 2338 3584 
Q 2397 3584 2469 3576 
Q 2541 3569 2628 3553 
L 2631 2963 
z
" transform="scale(0.015625)"/>
        <path id="DejaVuSans-61" d="M 2194 1759 
Q 1497 1759 1228 1600 
Q 959 1441 959 1056 
Q 959 750 1161 570 
Q 1363 391 1709 391 
Q 2188 391 2477 730 
Q 2766 1069 2766 1631 
L 2766 1759 
L 2194 1759 
z
M 3341 1997 
L 3341 0 
L 2766 0 
L 2766 531 
Q 2569 213 2275 61 
Q 1981 -91 1556 -91 
Q 1019 -91 701 211 
Q 384 513 384 1019 
Q 384 1609 779 1909 
Q 1175 2209 1959 2209 
L 2766 2209 
L 2766 2266 
Q 2766 2663 2505 2880 
Q 2244 3097 1772 3097 
Q 1472 3097 1187 3025 
Q 903 2953 641 2809 
L 641 3341 
Q 956 3463 1253 3523 
Q 1550 3584 1831 3584 
Q 2591 3584 2966 3190 
Q 3341 2797 3341 1997 
z
" transform="scale(0.015625)"/>
        <path id="DejaVuSans-74" d="M 1172 4494 
L 1172 3500 
L 2356 3500 
L 2356 3053 
L 1172 3053 
L 1172 1153 
Q 1172 725 1289 603 
Q 1406 481 1766 481 
L 2356 481 
L 2356 0 
L 1766 0 
Q 1100 0 847 248 
Q 594 497 594 1153 
L 594 3053 
L 172 3053 
L 172 3500 
L 594 3500 
L 594 4494 
L 1172 4494 
z
" transform="scale(0.015625)"/>
        <path id="DejaVuSans-75" d="M 544 1381 
L 544 3500 
L 1119 3500 
L 1119 1403 
Q 1119 906 1312 657 
Q 1506 409 1894 409 
Q 2359 409 2629 706 
Q 2900 1003 2900 1516 
L 2900 3500 
L 3475 3500 
L 3475 0 
L 2900 0 
L 2900 538 
Q 2691 219 2414 64 
Q 2138 -91 1772 -91 
Q 1169 -91 856 284 
Q 544 659 544 1381 
z
M 1991 3584 
L 1991 3584 
z
" transform="scale(0.015625)"/>
        <path id="DejaVuSans-20" transform="scale(0.015625)"/>
        <path id="DejaVuSans-28" d="M 1984 4856 
Q 1566 4138 1362 3434 
Q 1159 2731 1159 2009 
Q 1159 1288 1364 580 
Q 1569 -128 1984 -844 
L 1484 -844 
Q 1016 -109 783 600 
Q 550 1309 550 2009 
Q 550 2706 781 3412 
Q 1013 4119 1484 4856 
L 1984 4856 
z
" transform="scale(0.015625)"/>
        <path id="DejaVuSans-b0" d="M 1600 4347 
Q 1350 4347 1178 4173 
Q 1006 4000 1006 3750 
Q 1006 3503 1178 3333 
Q 1350 3163 1600 3163 
Q 1850 3163 2022 3333 
Q 2194 3503 2194 3750 
Q 2194 3997 2020 4172 
Q 1847 4347 1600 4347 
z
M 1600 4750 
Q 1800 4750 1984 4673 
Q 2169 4597 2303 4453 
Q 2447 4313 2519 4134 
Q 2591 3956 2591 3750 
Q 2591 3338 2302 3052 
Q 2013 2766 1594 2766 
Q 1172 2766 890 3047 
Q 609 3328 609 3750 
Q 609 4169 896 4459 
Q 1184 4750 1600 4750 
z
" transform="scale(0.015625)"/>
        <path id="DejaVuSans-43" d="M 4122 4306 
L 4122 3641 
Q 3803 3938 3442 4084 
Q 3081 4231 2675 4231 
Q 1875 4231 1450 3742 
Q 1025 3253 1025 2328 
Q 1025 1406 1450 917 
Q 1875 428 2675 428 
Q 3081 428 3442 575 
Q 3803 722 4122 1019 
L 4122 359 
Q 3791 134 3420 21 
Q 3050 -91 2638 -91 
Q 1578 -91 968 557 
Q 359 1206 359 2328 
Q 359 3453 968 4101 
Q 1578 4750 2638 4750 
Q 3056 4750 3426 4639 
Q 3797 4528 4122 4306 
z
" transform="scale(0.015625)"/>
        <path id="DejaVuSans-29" d="M 513 4856 
L 1013 4856 
Q 1481 4119 1714 3412 
Q 1947 2706 1947 2009 
Q 1947 1309 1714 600 
Q 1481 -109 1013 -844 
L 513 -844 
Q 928 -128 1133 580 
Q 1338 1288 1338 2009 
Q 1338 2731 1133 3434 
Q 928 4138 513 4856 
z
" transform="scale(0.015625)"/>
       </defs>
       <use xlink:href="#DejaVuSans-54"/>
       <use xlink:href="#DejaVuSans-65" x="44.083984"/>
       <use xlink:href="#DejaVuSans-6d" x="105.607422"/>
       <use xlink:href="#DejaVuSans-70" x="203.019531"/>
       <use xlink:href="#DejaVuSans-65" x="266.496094"/>
       <use xlink:href="#DejaVuSans-72" x="328.019531"/>
       <use xlink:href="#DejaVuSans-61" x="369.132812"/>
       <use xlink:href="#DejaVuSans-74" x="430.412109"/>
       <use xlink:href="#DejaVuSans-75" x="469.621094"/>
       <use xlink:href="#DejaVuSans-72" x="533"/>
       <use xlink:href="#DejaVuSans-65" x="571.863281"/>
       <use xlink:href="#DejaVuSans-20" x="633.386719"/>
       <use xlink:href="#DejaVuSans-28" x="665.173828"/>
       <use xlink:href="#DejaVuSans-b0" x="704.1875"/>
       <use xlink:href="#DejaVuSans-43" x="754.1875"/>
       <use xlink:href="#DejaVuSans-29" x="824.011719"/>
      </g>
     </g>
    </g>
    <g id="patch_4">
     <path d="M 414.72 307.584 
L 414.72 41.472 
" style="fill: none; stroke: #000000; stroke-width: 0.8; stroke-linejoin: miter; stroke-linecap: square"/>
    </g>
   </g>
   <g id="PolyCollection_1">
    <path d="M 397.341433 76.670656 
L 397.341433 102.398941 
L 396.895829 102.398941 
L 396.450225 102.398941 
L 396.00462 102.398941 
L 395.559016 102.398941 
L 395.113412 102.398941 
L 394.667807 102.398941 
L 394.260398 102.398941 
L 393.852988 102.398941 
L 393.445579 102.398942 
L 393.038169 102.398944 
L 392.630759 102.398952 
L 392.22335 102.398975 
L 391.81594 102.399008 
L 391.40853 102.399036 
L 391.001121 102.399098 
L 390.593711 102.399227 
L 390.186302 102.399472 
L 389.778892 102.399922 
L 389.371482 102.400713 
L 388.964073 102.402074 
L 388.556663 102.404365 
L 387.207119 102.40932 
L 385.857574 102.41656 
L 384.50803 102.426161 
L 383.171217 102.440052 
L 381.821673 102.459755 
L 380.472128 102.487337 
L 379.122584 102.525654 
L 377.93855 102.57428 
L 376.754516 102.635398 
L 375.570481 102.712168 
L 371.279949 102.792642 
L 367.040342 102.857427 
L 362.83893 102.904174 
L 359.859748 102.977195 
L 356.893296 103.097184 
L 353.914113 103.284714 
L 350.93493 103.557173 
L 347.968479 103.926241 
L 344.989296 104.408458 
L 342.022845 105.038387 
L 339.043662 105.834398 
L 336.064479 106.804145 
L 333.098028 107.953121 
L 330.118845 109.280605 
L 323.192881 111.046286 
L 316.266918 113.141181 
L 309.340954 115.419737 
L 302.41499 117.818013 
L 295.489027 120.285787 
L 292.929985 123.030406 
L 290.370943 126.160729 
L 287.811902 129.692833 
L 285.25286 133.588663 
L 282.693818 137.784928 
L 280.134776 142.206736 
L 277.575735 146.79501 
L 275.016693 151.498336 
L 272.457651 156.260221 
L 269.89861 161.050166 
L 267.339568 165.843859 
L 264.780526 170.623715 
L 262.221484 175.37124 
L 259.662443 180.082748 
L 257.103401 184.750748 
L 254.557091 189.373994 
L 251.998049 193.955582 
L 249.439007 201.692416 
L 246.879966 211.096522 
L 244.320924 218.975234 
L 241.761882 225.868372 
L 239.202841 232.07112 
L 236.783846 236.324206 
L 234.364851 239.029515 
L 231.958588 241.871621 
L 229.539594 244.832122 
L 227.120599 247.876276 
L 224.714336 250.991575 
L 222.295341 254.16013 
L 219.723568 257.416533 
L 217.151795 260.722562 
L 214.580021 264.035574 
L 212.02098 267.350911 
L 209.449206 271.167345 
L 206.877433 275.304774 
L 204.394781 279.116032 
L 201.912128 281.623807 
L 199.429476 282.983715 
L 196.946824 284.471847 
L 194.464171 286.127155 
L 191.981519 287.919591 
L 189.498866 289.741859 
L 187.016214 291.57301 
L 184.533561 293.408319 
L 182.050909 295.227047 
L 178.969874 295.488 
L 176.079812 294.81953 
L 173.317065 293.94353 
L 170.694366 292.963075 
L 168.160787 291.976702 
L 165.703598 291.03115 
L 163.335529 290.148992 
L 161.031119 289.343701 
L 158.777634 288.618682 
L 156.587807 287.974201 
L 146.580809 287.252977 
L 136.790246 286.73664 
L 127.177925 286.338218 
L 117.731114 286.022261 
L 108.437082 285.76827 
L 99.295829 285.562805 
L 95.52729 285.39601 
L 91.809677 285.249978 
L 88.130259 285.127614 
L 84.501767 285.025166 
L 80.91147 284.939659 
L 77.359367 284.868404 
L 73.832727 284.809115 
L 73.832727 110.763203 
L 73.832727 110.763203 
L 77.359367 110.726691 
L 80.91147 110.683462 
L 84.501767 110.632401 
L 88.130259 110.572252 
L 91.809677 110.501718 
L 95.52729 110.419148 
L 99.295829 110.326693 
L 108.437082 110.21305 
L 117.731114 110.076078 
L 127.177925 109.910261 
L 136.790246 109.707054 
L 146.580809 109.451119 
L 156.587807 109.1007 
L 158.777634 108.824996 
L 161.031119 108.525938 
L 163.335529 108.204071 
L 165.703598 107.858168 
L 168.160787 107.485677 
L 170.694366 107.077495 
L 173.317065 106.616632 
L 176.079812 106.076041 
L 178.969874 104.908873 
L 182.050909 102.471652 
L 184.533561 99.327749 
L 187.016214 96.445633 
L 189.498866 93.817244 
L 191.981519 91.427679 
L 194.464171 89.287027 
L 196.946824 87.518186 
L 199.429476 86.088687 
L 201.912128 84.860964 
L 204.394781 82.203189 
L 206.877433 78.248627 
L 209.449206 74.474335 
L 212.02098 71.461248 
L 214.580021 69.192664 
L 217.151795 67.152377 
L 219.723568 65.327724 
L 222.295341 63.720164 
L 224.714336 62.307243 
L 227.120599 61.067929 
L 229.539594 59.992329 
L 231.958588 59.067072 
L 234.364851 58.28303 
L 236.783846 57.621463 
L 239.202841 56.625473 
L 241.761882 55.415899 
L 244.320924 54.456452 
L 246.879966 53.801986 
L 249.439007 53.568 
L 251.998049 53.814228 
L 254.557091 54.158537 
L 257.103401 54.625114 
L 259.662443 55.212803 
L 262.221484 55.92027 
L 264.780526 56.744702 
L 267.339568 57.684229 
L 269.89861 58.732926 
L 272.457651 59.883795 
L 275.016693 61.126826 
L 277.575735 62.448757 
L 280.134776 63.82561 
L 282.693818 65.231347 
L 285.25286 66.634459 
L 287.811902 67.994302 
L 290.370943 69.271643 
L 292.929985 70.43476 
L 295.489027 71.472533 
L 302.41499 72.412639 
L 309.340954 73.327235 
L 316.266918 74.188638 
L 323.192881 74.963199 
L 330.118845 75.591236 
L 333.098028 76.035828 
L 336.064479 76.38978 
L 339.043662 76.654326 
L 342.022845 76.835985 
L 344.989296 76.945711 
L 347.968479 76.999641 
L 350.93493 77.015262 
L 353.914113 77.006504 
L 356.893296 76.986765 
L 359.859748 76.966414 
L 362.83893 76.95017 
L 367.040342 76.937393 
L 371.279949 76.9172 
L 375.570481 76.887255 
L 376.754516 76.852282 
L 377.93855 76.818636 
L 379.122584 76.787097 
L 380.472128 76.758414 
L 381.821673 76.735056 
L 383.171217 76.716597 
L 384.50803 76.702467 
L 385.857574 76.692027 
L 387.207119 76.683702 
L 388.556663 76.677722 
L 388.964073 76.674839 
L 389.371482 76.673078 
L 389.778892 76.672032 
L 390.186302 76.671424 
L 390.593711 76.671085 
L 391.001121 76.670904 
L 391.40853 76.670813 
L 391.81594 76.670771 
L 392.22335 76.670717 
L 392.630759 76.670679 
L 393.038169 76.670664 
L 393.445579 76.670658 
L 393.852988 76.670657 
L 394.260398 76.670656 
L 394.667807 76.670656 
L 395.113412 76.670656 
L 395.559016 76.670656 
L 396.00462 76.670656 
L 396.450225 76.670656 
L 396.895829 76.670656 
L 397.341433 76.670656 
z
" clip-path="url(#p3383a20e23)" style="fill: #1f77b4; fill-opacity: 0.5"/>
   </g>
   <g id="matplotlib.axis_3">
    <g id="xtick_1">
     <g id="line2d_26">
      <defs>
       <path id="meb624e3d49" d="M 0 0 
L 0 3.5 
" style="stroke: #000000; stroke-width: 0.8"/>
      </defs>
      <g>
       <use xlink:href="#meb624e3d49" x="73.832727" y="307.584" style="stroke: #000000; stroke-width: 0.8"/>
      </g>
     </g>
     <g id="text_27">
      <!-- 0 -->
      <g transform="translate(70.651477 322.182437)scale(0.1 -0.1)">
       <use xlink:href="#DejaVuSans-30"/>
      </g>
     </g>
    </g>
    <g id="xtick_2">
     <g id="line2d_27">
      <g>
       <use xlink:href="#meb624e3d49" x="137.490481" y="307.584" style="stroke: #000000; stroke-width: 0.8"/>
      </g>
     </g>
     <g id="text_28">
      <!-- 50 -->
      <g transform="translate(131.127981 322.182437)scale(0.1 -0.1)">
       <use xlink:href="#DejaVuSans-35"/>
       <use xlink:href="#DejaVuSans-30" x="63.623047"/>
      </g>
     </g>
    </g>
    <g id="xtick_3">
     <g id="line2d_28">
      <g>
       <use xlink:href="#meb624e3d49" x="201.148235" y="307.584" style="stroke: #000000; stroke-width: 0.8"/>
      </g>
     </g>
     <g id="text_29">
      <!-- 100 -->
      <g transform="translate(191.604485 322.182437)scale(0.1 -0.1)">
       <use xlink:href="#DejaVuSans-31"/>
       <use xlink:href="#DejaVuSans-30" x="63.623047"/>
       <use xlink:href="#DejaVuSans-30" x="127.246094"/>
      </g>
     </g>
    </g>
    <g id="xtick_4">
     <g id="line2d_29">
      <g>
       <use xlink:href="#meb624e3d49" x="264.805989" y="307.584" style="stroke: #000000; stroke-width: 0.8"/>
      </g>
     </g>
     <g id="text_30">
      <!-- 150 -->
      <g transform="translate(255.262239 322.182437)scale(0.1 -0.1)">
       <use xlink:href="#DejaVuSans-31"/>
       <use xlink:href="#DejaVuSans-35" x="63.623047"/>
       <use xlink:href="#DejaVuSans-30" x="127.246094"/>
      </g>
     </g>
    </g>
    <g id="xtick_5">
     <g id="line2d_30">
      <g>
       <use xlink:href="#meb624e3d49" x="328.463743" y="307.584" style="stroke: #000000; stroke-width: 0.8"/>
      </g>
     </g>
     <g id="text_31">
      <!-- 200 -->
      <g transform="translate(318.919993 322.182437)scale(0.1 -0.1)">
       <use xlink:href="#DejaVuSans-32"/>
       <use xlink:href="#DejaVuSans-30" x="63.623047"/>
       <use xlink:href="#DejaVuSans-30" x="127.246094"/>
      </g>
     </g>
    </g>
    <g id="xtick_6">
     <g id="line2d_31">
      <g>
       <use xlink:href="#meb624e3d49" x="392.121497" y="307.584" style="stroke: #000000; stroke-width: 0.8"/>
      </g>
     </g>
     <g id="text_32">
      <!-- 250 -->
      <g transform="translate(382.577747 322.182437)scale(0.1 -0.1)">
       <use xlink:href="#DejaVuSans-32"/>
       <use xlink:href="#DejaVuSans-35" x="63.623047"/>
       <use xlink:href="#DejaVuSans-30" x="127.246094"/>
      </g>
     </g>
    </g>
    <g id="text_33">
     <!-- time (Myr) -->
     <g transform="translate(210.044375 335.860562)scale(0.1 -0.1)">
      <defs>
       <path id="DejaVuSans-69" d="M 603 3500 
L 1178 3500 
L 1178 0 
L 603 0 
L 603 3500 
z
M 603 4863 
L 1178 4863 
L 1178 4134 
L 603 4134 
L 603 4863 
z
" transform="scale(0.015625)"/>
       <path id="DejaVuSans-4d" d="M 628 4666 
L 1569 4666 
L 2759 1491 
L 3956 4666 
L 4897 4666 
L 4897 0 
L 4281 0 
L 4281 4097 
L 3078 897 
L 2444 897 
L 1241 4097 
L 1241 0 
L 628 0 
L 628 4666 
z
" transform="scale(0.015625)"/>
       <path id="DejaVuSans-79" d="M 2059 -325 
Q 1816 -950 1584 -1140 
Q 1353 -1331 966 -1331 
L 506 -1331 
L 506 -850 
L 844 -850 
Q 1081 -850 1212 -737 
Q 1344 -625 1503 -206 
L 1606 56 
L 191 3500 
L 800 3500 
L 1894 763 
L 2988 3500 
L 3597 3500 
L 2059 -325 
z
" transform="scale(0.015625)"/>
      </defs>
      <use xlink:href="#DejaVuSans-74"/>
      <use xlink:href="#DejaVuSans-69" x="39.208984"/>
      <use xlink:href="#DejaVuSans-6d" x="66.992188"/>
      <use xlink:href="#DejaVuSans-65" x="164.404297"/>
      <use xlink:href="#DejaVuSans-20" x="225.927734"/>
      <use xlink:href="#DejaVuSans-28" x="257.714844"/>
      <use xlink:href="#DejaVuSans-4d" x="296.728516"/>
      <use xlink:href="#DejaVuSans-79" x="383.007812"/>
      <use xlink:href="#DejaVuSans-72" x="442.1875"/>
      <use xlink:href="#DejaVuSans-29" x="483.300781"/>
     </g>
    </g>
   </g>
   <g id="matplotlib.axis_4">
    <g id="ytick_26">
     <g id="line2d_32">
      <defs>
       <path id="m19cbe18be6" d="M 0 0 
L -3.5 0 
" style="stroke: #000000; stroke-width: 0.8"/>
      </defs>
      <g>
       <use xlink:href="#m19cbe18be6" x="57.6" y="288.275984" style="stroke: #000000; stroke-width: 0.8"/>
      </g>
     </g>
     <g id="text_34">
      <!-- 0.30 -->
      <g transform="translate(28.334375 292.075203)scale(0.1 -0.1)">
       <defs>
        <path id="DejaVuSans-2e" d="M 684 794 
L 1344 794 
L 1344 0 
L 684 0 
L 684 794 
z
" transform="scale(0.015625)"/>
       </defs>
       <use xlink:href="#DejaVuSans-30"/>
       <use xlink:href="#DejaVuSans-2e" x="63.623047"/>
       <use xlink:href="#DejaVuSans-33" x="95.410156"/>
       <use xlink:href="#DejaVuSans-30" x="159.033203"/>
      </g>
     </g>
    </g>
    <g id="ytick_27">
     <g id="line2d_33">
      <g>
       <use xlink:href="#m19cbe18be6" x="57.6" y="256.115612" style="stroke: #000000; stroke-width: 0.8"/>
      </g>
     </g>
     <g id="text_35">
      <!-- 0.35 -->
      <g transform="translate(28.334375 259.914831)scale(0.1 -0.1)">
       <use xlink:href="#DejaVuSans-30"/>
       <use xlink:href="#DejaVuSans-2e" x="63.623047"/>
       <use xlink:href="#DejaVuSans-33" x="95.410156"/>
       <use xlink:href="#DejaVuSans-35" x="159.033203"/>
      </g>
     </g>
    </g>
    <g id="ytick_28">
     <g id="line2d_34">
      <g>
       <use xlink:href="#m19cbe18be6" x="57.6" y="223.955241" style="stroke: #000000; stroke-width: 0.8"/>
      </g>
     </g>
     <g id="text_36">
      <!-- 0.40 -->
      <g transform="translate(28.334375 227.75446)scale(0.1 -0.1)">
       <use xlink:href="#DejaVuSans-30"/>
       <use xlink:href="#DejaVuSans-2e" x="63.623047"/>
       <use xlink:href="#DejaVuSans-34" x="95.410156"/>
       <use xlink:href="#DejaVuSans-30" x="159.033203"/>
      </g>
     </g>
    </g>
    <g id="ytick_29">
     <g id="line2d_35">
      <g>
       <use xlink:href="#m19cbe18be6" x="57.6" y="191.79487" style="stroke: #000000; stroke-width: 0.8"/>
      </g>
     </g>
     <g id="text_37">
      <!-- 0.45 -->
      <g transform="translate(28.334375 195.594088)scale(0.1 -0.1)">
       <use xlink:href="#DejaVuSans-30"/>
       <use xlink:href="#DejaVuSans-2e" x="63.623047"/>
       <use xlink:href="#DejaVuSans-34" x="95.410156"/>
       <use xlink:href="#DejaVuSans-35" x="159.033203"/>
      </g>
     </g>
    </g>
    <g id="ytick_30">
     <g id="line2d_36">
      <g>
       <use xlink:href="#m19cbe18be6" x="57.6" y="159.634498" style="stroke: #000000; stroke-width: 0.8"/>
      </g>
     </g>
     <g id="text_38">
      <!-- 0.50 -->
      <g transform="translate(28.334375 163.433717)scale(0.1 -0.1)">
       <use xlink:href="#DejaVuSans-30"/>
       <use xlink:href="#DejaVuSans-2e" x="63.623047"/>
       <use xlink:href="#DejaVuSans-35" x="95.410156"/>
       <use xlink:href="#DejaVuSans-30" x="159.033203"/>
      </g>
     </g>
    </g>
    <g id="ytick_31">
     <g id="line2d_37">
      <g>
       <use xlink:href="#m19cbe18be6" x="57.6" y="127.474127" style="stroke: #000000; stroke-width: 0.8"/>
      </g>
     </g>
     <g id="text_39">
      <!-- 0.55 -->
      <g transform="translate(28.334375 131.273345)scale(0.1 -0.1)">
       <use xlink:href="#DejaVuSans-30"/>
       <use xlink:href="#DejaVuSans-2e" x="63.623047"/>
       <use xlink:href="#DejaVuSans-35" x="95.410156"/>
       <use xlink:href="#DejaVuSans-35" x="159.033203"/>
      </g>
     </g>
    </g>
    <g id="ytick_32">
     <g id="line2d_38">
      <g>
       <use xlink:href="#m19cbe18be6" x="57.6" y="95.313755" style="stroke: #000000; stroke-width: 0.8"/>
      </g>
     </g>
     <g id="text_40">
      <!-- 0.60 -->
      <g transform="translate(28.334375 99.112974)scale(0.1 -0.1)">
       <use xlink:href="#DejaVuSans-30"/>
       <use xlink:href="#DejaVuSans-2e" x="63.623047"/>
       <use xlink:href="#DejaVuSans-36" x="95.410156"/>
       <use xlink:href="#DejaVuSans-30" x="159.033203"/>
      </g>
     </g>
    </g>
    <g id="ytick_33">
     <g id="line2d_39">
      <g>
       <use xlink:href="#m19cbe18be6" x="57.6" y="63.153384" style="stroke: #000000; stroke-width: 0.8"/>
      </g>
     </g>
     <g id="text_41">
      <!-- 0.65 -->
      <g transform="translate(28.334375 66.952603)scale(0.1 -0.1)">
       <use xlink:href="#DejaVuSans-30"/>
       <use xlink:href="#DejaVuSans-2e" x="63.623047"/>
       <use xlink:href="#DejaVuSans-36" x="95.410156"/>
       <use xlink:href="#DejaVuSans-35" x="159.033203"/>
      </g>
     </g>
    </g>
    <g id="text_42">
     <!-- D47 (‰) -->
     <g transform="translate(22.254687 196.9405)rotate(-90)scale(0.1 -0.1)">
      <defs>
       <path id="DejaVuSans-44" d="M 1259 4147 
L 1259 519 
L 2022 519 
Q 2988 519 3436 956 
Q 3884 1394 3884 2338 
Q 3884 3275 3436 3711 
Q 2988 4147 2022 4147 
L 1259 4147 
z
M 628 4666 
L 1925 4666 
Q 3281 4666 3915 4102 
Q 4550 3538 4550 2338 
Q 4550 1131 3912 565 
Q 3275 0 1925 0 
L 628 0 
L 628 4666 
z
" transform="scale(0.015625)"/>
       <path id="DejaVuSans-2030" d="M 7163 2053 
Q 6891 2053 6734 1822 
Q 6578 1591 6578 1178 
Q 6578 772 6734 539 
Q 6891 306 7163 306 
Q 7428 306 7583 539 
Q 7738 772 7738 1178 
Q 7738 1588 7583 1820 
Q 7428 2053 7163 2053 
z
M 7163 2450 
Q 7656 2450 7947 2106 
Q 8238 1763 8238 1178 
Q 8238 594 7945 251 
Q 7653 -91 7163 -91 
Q 6663 -91 6372 251 
Q 6081 594 6081 1178 
Q 6081 1766 6373 2108 
Q 6666 2450 7163 2450 
z
M 1428 4750 
Q 1922 4750 2215 4408 
Q 2509 4066 2509 3481 
Q 2509 2891 2217 2550 
Q 1925 2209 1428 2209 
Q 931 2209 642 2551 
Q 353 2894 353 3481 
Q 353 4063 643 4406 
Q 934 4750 1428 4750 
z
M 4250 4750 
L 4750 4750 
L 1831 -91 
L 1331 -91 
L 4250 4750 
z
M 1428 4353 
Q 1159 4353 1004 4120 
Q 850 3888 850 3481 
Q 850 3069 1003 2837 
Q 1156 2606 1428 2606 
Q 1700 2606 1854 2837 
Q 2009 3069 2009 3481 
Q 2009 3884 1853 4118 
Q 1697 4353 1428 4353 
z
M 4653 2450 
Q 5147 2450 5437 2106 
Q 5728 1763 5728 1178 
Q 5728 594 5436 251 
Q 5144 -91 4653 -91 
Q 4153 -91 3862 251 
Q 3572 594 3572 1178 
Q 3572 1766 3864 2108 
Q 4156 2450 4653 2450 
z
M 4653 2053 
Q 4381 2053 4226 1822 
Q 4072 1591 4072 1178 
Q 4072 772 4226 539 
Q 4381 306 4653 306 
Q 4919 306 5073 539 
Q 5228 772 5228 1178 
Q 5228 1588 5073 1820 
Q 4919 2053 4653 2053 
z
" transform="scale(0.015625)"/>
      </defs>
      <use xlink:href="#DejaVuSans-44"/>
      <use xlink:href="#DejaVuSans-34" x="77.001953"/>
      <use xlink:href="#DejaVuSans-37" x="140.625"/>
      <use xlink:href="#DejaVuSans-20" x="204.248047"/>
      <use xlink:href="#DejaVuSans-28" x="236.035156"/>
      <use xlink:href="#DejaVuSans-2030" x="275.048828"/>
      <use xlink:href="#DejaVuSans-29" x="409.228516"/>
     </g>
    </g>
   </g>
   <g id="line2d_40">
    <path d="M 397.341433 89.534799 
L 396.895829 89.534799 
L 396.450225 89.534799 
L 396.00462 89.534799 
L 395.559016 89.534799 
L 395.113412 89.534799 
L 394.667807 89.534799 
L 394.260398 89.534799 
L 393.852988 89.534799 
L 393.445579 89.5348 
L 393.038169 89.534804 
L 392.630759 89.534816 
L 392.22335 89.534846 
L 391.81594 89.534889 
L 391.40853 89.534924 
L 391.001121 89.535001 
L 390.593711 89.535156 
L 390.186302 89.535448 
L 389.778892 89.535977 
L 389.371482 89.536895 
L 388.964073 89.538456 
L 388.556663 89.541043 
L 387.207119 89.546511 
L 385.857574 89.554293 
L 384.50803 89.564314 
L 383.171217 89.578324 
L 381.821673 89.597405 
L 380.472128 89.622876 
L 379.122584 89.656376 
L 377.93855 89.696458 
L 376.754516 89.74384 
L 375.570481 89.799711 
L 371.279949 89.854921 
L 367.040342 89.89741 
L 362.83893 89.927172 
L 359.859748 89.971804 
L 356.893296 90.041975 
L 353.914113 90.145609 
L 350.93493 90.286218 
L 347.968479 90.462941 
L 344.989296 90.677085 
L 342.022845 90.937186 
L 339.043662 91.244362 
L 336.064479 91.596962 
L 333.098028 91.994475 
L 330.118845 92.43592 
L 323.192881 93.004742 
L 316.266918 93.664909 
L 309.340954 94.373486 
L 302.41499 95.115326 
L 295.489027 95.87916 
L 292.929985 96.732583 
L 290.370943 97.716186 
L 287.811902 98.843567 
L 285.25286 100.111561 
L 282.693818 101.508137 
L 280.134776 103.016173 
L 277.575735 104.621884 
L 275.016693 106.312581 
L 272.457651 108.072008 
L 269.89861 109.891546 
L 267.339568 111.764044 
L 264.780526 113.684209 
L 262.221484 115.645755 
L 259.662443 117.647776 
L 257.103401 119.687931 
L 254.557091 121.766265 
L 251.998049 123.884905 
L 249.439007 127.630208 
L 246.879966 132.449254 
L 244.320924 136.715843 
L 241.761882 140.642136 
L 239.202841 144.348296 
L 236.783846 146.972835 
L 234.364851 148.656272 
L 231.958588 150.469346 
L 229.539594 152.412225 
L 227.120599 154.472103 
L 224.714336 156.649409 
L 222.295341 158.940147 
L 219.723568 161.372129 
L 217.151795 163.93747 
L 214.580021 166.614119 
L 212.02098 169.40608 
L 209.449206 172.82084 
L 206.877433 176.776701 
L 204.394781 180.65961 
L 201.912128 183.242385 
L 199.429476 184.536201 
L 196.946824 185.995016 
L 194.464171 187.707091 
L 191.981519 189.673635 
L 189.498866 191.779551 
L 187.016214 194.009321 
L 184.533561 196.368034 
L 182.050909 198.84935 
L 178.969874 200.198437 
L 176.079812 200.447786 
L 173.317065 200.280081 
L 170.694366 200.020285 
L 168.160787 199.731189 
L 165.703598 199.444659 
L 163.335529 199.176532 
L 161.031119 198.93482 
L 158.777634 198.721839 
L 156.587807 198.537451 
L 146.580809 198.352048 
L 136.790246 198.221847 
L 127.177925 198.12424 
L 117.731114 198.04917 
L 108.437082 197.99066 
L 99.295829 197.944749 
L 95.52729 197.907579 
L 91.809677 197.875848 
L 88.130259 197.849933 
L 84.501767 197.828784 
L 80.91147 197.81156 
L 77.359367 197.797547 
L 73.832727 197.786159 
" clip-path="url(#p3383a20e23)" style="fill: none; stroke: #1f77b4; stroke-width: 1.5; stroke-linecap: square"/>
   </g>
   <g id="LineCollection_1">
    <path clip-path="url(#p3383a20e23)" style="fill: none; stroke: #ff0000; stroke-width: 1.5"/>
    <path clip-path="url(#p3383a20e23)" style="fill: none; stroke: #ff0000; stroke-width: 1.5"/>
    <path clip-path="url(#p3383a20e23)" style="fill: none; stroke: #ff0000; stroke-width: 1.5"/>
    <path d="M 391.612235 185.894331 
L 398.487273 185.894331 
" clip-path="url(#p3383a20e23)" style="fill: none; stroke: #ff0000; stroke-width: 1.5"/>
    <path clip-path="url(#p3383a20e23)" style="fill: none; stroke: #ff0000; stroke-width: 1.5"/>
    <path clip-path="url(#p3383a20e23)" style="fill: none; stroke: #ff0000; stroke-width: 1.5"/>
   </g>
   <g id="LineCollection_2">
    <path clip-path="url(#p3383a20e23)" style="fill: none; stroke: #ff0000; stroke-width: 1.5"/>
    <path clip-path="url(#p3383a20e23)" style="fill: none; stroke: #ff0000; stroke-width: 1.5"/>
    <path clip-path="url(#p3383a20e23)" style="fill: none; stroke: #ff0000; stroke-width: 1.5"/>
    <path d="M 395.049754 210.885512 
L 395.049754 160.903149 
" clip-path="url(#p3383a20e23)" style="fill: none; stroke: #ff0000; stroke-width: 1.5"/>
    <path clip-path="url(#p3383a20e23)" style="fill: none; stroke: #ff0000; stroke-width: 1.5"/>
    <path clip-path="url(#p3383a20e23)" style="fill: none; stroke: #ff0000; stroke-width: 1.5"/>
   </g>
   <g id="line2d_41">
    <defs>
     <path id="m7c4daa043d" d="M 0 5 
L 0 -5 
" style="stroke: #ff0000"/>
    </defs>
    <g clip-path="url(#p3383a20e23)">
     <use xlink:href="#m7c4daa043d" x="391.612235" y="185.894331" style="fill: #ff0000; stroke: #ff0000"/>
    </g>
   </g>
   <g id="line2d_42">
    <g clip-path="url(#p3383a20e23)">
     <use xlink:href="#m7c4daa043d" x="398.487273" y="185.894331" style="fill: #ff0000; stroke: #ff0000"/>
    </g>
   </g>
   <g id="line2d_43">
    <defs>
     <path id="meaa306c9af" d="M 5 0 
L -5 -0 
" style="stroke: #ff0000"/>
    </defs>
    <g clip-path="url(#p3383a20e23)">
     <use xlink:href="#meaa306c9af" x="395.049754" y="210.885512" style="fill: #ff0000; stroke: #ff0000"/>
    </g>
   </g>
   <g id="line2d_44">
    <g clip-path="url(#p3383a20e23)">
     <use xlink:href="#meaa306c9af" x="395.049754" y="160.903149" style="fill: #ff0000; stroke: #ff0000"/>
    </g>
   </g>
   <g id="line2d_45">
    <path d="M 397.341433 89.534617 
L 396.895829 89.534617 
L 396.450225 89.534617 
L 396.00462 89.534617 
L 395.559016 89.534617 
L 395.113412 89.534617 
L 394.667807 89.534617 
L 394.260398 99.001949 
L 393.852988 107.854182 
L 393.445579 116.072812 
L 393.038169 123.712259 
L 392.630759 130.836806 
L 392.22335 137.472441 
L 391.81594 143.687234 
L 391.40853 149.512631 
L 391.001121 154.990665 
L 390.593711 160.158792 
L 390.186302 165.024992 
L 389.778892 169.634114 
L 389.371482 174.014216 
L 388.964073 178.167366 
L 388.556663 182.11848 
L 387.207119 187.611661 
L 385.857574 191.440047 
L 384.50803 194.70691 
L 383.171217 197.680847 
L 381.821673 200.457635 
L 380.472128 203.076649 
L 379.122584 205.573946 
L 377.93855 207.495703 
L 376.754516 209.268438 
L 375.570481 210.969659 
L 371.279949 211.66444 
L 367.040342 210.826616 
L 362.83893 209.331897 
L 359.859748 211.602261 
L 356.893296 214.401697 
L 353.914113 217.056646 
L 350.93493 219.400871 
L 347.968479 221.549478 
L 344.989296 223.536353 
L 342.022845 225.369185 
L 339.043662 227.047212 
L 336.064479 228.592225 
L 333.098028 230.009514 
L 330.118845 231.311244 
L 323.192881 233.200112 
L 316.266918 234.675782 
L 309.340954 235.882942 
L 302.41499 236.914874 
L 295.489027 237.811478 
L 292.929985 239.028257 
L 290.370943 240.418392 
L 287.811902 241.808278 
L 285.25286 243.125521 
L 282.693818 244.366255 
L 280.134776 245.514025 
L 277.575735 246.584566 
L 275.016693 247.586546 
L 272.457651 248.51585 
L 269.89861 249.392855 
L 267.339568 250.224991 
L 264.780526 251.019381 
L 262.221484 251.776929 
L 259.662443 252.510267 
L 257.103401 253.219917 
L 254.557091 253.91217 
L 251.998049 254.593116 
L 249.439007 255.268655 
L 246.879966 255.933186 
L 244.320924 256.59251 
L 241.761882 257.246684 
L 239.202841 257.901286 
L 236.783846 258.534307 
L 234.364851 259.173388 
L 231.958588 259.812925 
L 229.539594 260.4582 
L 227.120599 261.103699 
L 224.714336 261.749348 
L 222.295341 262.395075 
L 219.723568 263.082291 
L 217.151795 263.768749 
L 214.580021 264.449289 
L 212.02098 265.134081 
L 209.449206 265.812915 
L 206.877433 266.495787 
L 204.394781 267.148067 
L 201.912128 267.799725 
L 199.429476 268.445861 
L 196.946824 269.091334 
L 194.464171 269.731329 
L 191.981519 270.365906 
L 189.498866 270.995126 
L 187.016214 271.619051 
L 184.533561 272.242336 
L 182.050909 272.855806 
L 178.969874 272.048991 
L 176.079812 270.653002 
L 173.317065 269.000147 
L 170.694366 267.216925 
L 168.160787 265.355982 
L 165.703598 263.444326 
L 163.335529 261.490652 
L 161.031119 259.510039 
L 158.777634 257.502481 
L 156.587807 255.473684 
L 146.580809 251.556905 
L 136.790246 248.614408 
L 127.177925 245.977998 
L 117.731114 243.491027 
L 108.437082 241.082487 
L 99.295829 238.720369 
L 95.52729 237.019558 
L 91.809677 235.13199 
L 88.130259 233.185607 
L 84.501767 231.200323 
L 80.91147 229.205283 
L 77.359367 227.201221 
L 73.832727 225.181059 
" clip-path="url(#p3383a20e23)" style="fill: none; stroke: #ff7f0e; stroke-width: 1.5; stroke-linecap: square"/>
   </g>
   <g id="line2d_46">
    <defs>
     <path id="md341dd6fc4" d="M 0 3 
C 0.795609 3 1.55874 2.683901 2.12132 2.12132 
C 2.683901 1.55874 3 0.795609 3 0 
C 3 -0.795609 2.683901 -1.55874 2.12132 -2.12132 
C 1.55874 -2.683901 0.795609 -3 0 -3 
C -0.795609 -3 -1.55874 -2.683901 -2.12132 -2.12132 
C -2.683901 -1.55874 -3 -0.795609 -3 0 
C -3 0.795609 -2.683901 1.55874 -2.12132 2.12132 
C -1.55874 2.683901 -0.795609 3 0 3 
z
" style="stroke: #ff0000"/>
    </defs>
    <g clip-path="url(#p3383a20e23)">
     <use xlink:href="#md341dd6fc4" x="395.049754" y="185.894331" style="fill: #ff0000; stroke: #ff0000"/>
    </g>
   </g>
   <g id="patch_5">
    <path d="M 57.6 307.584 
L 57.6 41.472 
" style="fill: none; stroke: #000000; stroke-width: 0.8; stroke-linejoin: miter; stroke-linecap: square"/>
   </g>
   <g id="patch_6">
    <path d="M 414.72 307.584 
L 414.72 41.472 
" style="fill: none; stroke: #000000; stroke-width: 0.8; stroke-linejoin: miter; stroke-linecap: square"/>
   </g>
   <g id="patch_7">
    <path d="M 57.6 307.584 
L 414.72 307.584 
" style="fill: none; stroke: #000000; stroke-width: 0.8; stroke-linejoin: miter; stroke-linecap: square"/>
   </g>
   <g id="patch_8">
    <path d="M 57.6 41.472 
L 414.72 41.472 
" style="fill: none; stroke: #000000; stroke-width: 0.8; stroke-linejoin: miter; stroke-linecap: square"/>
   </g>
   <g id="legend_1">
    <g id="patch_9">
     <path d="M 64.6 93.506375 
L 283.765625 93.506375 
Q 285.765625 93.506375 285.765625 91.506375 
L 285.765625 48.472 
Q 285.765625 46.472 283.765625 46.472 
L 64.6 46.472 
Q 62.6 46.472 62.6 48.472 
L 62.6 91.506375 
Q 62.6 93.506375 64.6 93.506375 
z
" style="fill: #ffffff; opacity: 0.8; stroke: #cccccc; stroke-linejoin: miter"/>
    </g>
    <g id="line2d_47">
     <path d="M 66.6 54.570438 
L 76.6 54.570438 
L 86.6 54.570438 
" style="fill: none; stroke: #1f77b4; stroke-width: 1.5; stroke-linecap: square"/>
    </g>
    <g id="text_43">
     <!-- foreward-modeled data -->
     <g transform="translate(94.6 58.070438)scale(0.1 -0.1)">
      <defs>
       <path id="DejaVuSans-66" d="M 2375 4863 
L 2375 4384 
L 1825 4384 
Q 1516 4384 1395 4259 
Q 1275 4134 1275 3809 
L 1275 3500 
L 2222 3500 
L 2222 3053 
L 1275 3053 
L 1275 0 
L 697 0 
L 697 3053 
L 147 3053 
L 147 3500 
L 697 3500 
L 697 3744 
Q 697 4328 969 4595 
Q 1241 4863 1831 4863 
L 2375 4863 
z
" transform="scale(0.015625)"/>
       <path id="DejaVuSans-6f" d="M 1959 3097 
Q 1497 3097 1228 2736 
Q 959 2375 959 1747 
Q 959 1119 1226 758 
Q 1494 397 1959 397 
Q 2419 397 2687 759 
Q 2956 1122 2956 1747 
Q 2956 2369 2687 2733 
Q 2419 3097 1959 3097 
z
M 1959 3584 
Q 2709 3584 3137 3096 
Q 3566 2609 3566 1747 
Q 3566 888 3137 398 
Q 2709 -91 1959 -91 
Q 1206 -91 779 398 
Q 353 888 353 1747 
Q 353 2609 779 3096 
Q 1206 3584 1959 3584 
z
" transform="scale(0.015625)"/>
       <path id="DejaVuSans-77" d="M 269 3500 
L 844 3500 
L 1563 769 
L 2278 3500 
L 2956 3500 
L 3675 769 
L 4391 3500 
L 4966 3500 
L 4050 0 
L 3372 0 
L 2619 2869 
L 1863 0 
L 1184 0 
L 269 3500 
z
" transform="scale(0.015625)"/>
       <path id="DejaVuSans-64" d="M 2906 2969 
L 2906 4863 
L 3481 4863 
L 3481 0 
L 2906 0 
L 2906 525 
Q 2725 213 2448 61 
Q 2172 -91 1784 -91 
Q 1150 -91 751 415 
Q 353 922 353 1747 
Q 353 2572 751 3078 
Q 1150 3584 1784 3584 
Q 2172 3584 2448 3432 
Q 2725 3281 2906 2969 
z
M 947 1747 
Q 947 1113 1208 752 
Q 1469 391 1925 391 
Q 2381 391 2643 752 
Q 2906 1113 2906 1747 
Q 2906 2381 2643 2742 
Q 2381 3103 1925 3103 
Q 1469 3103 1208 2742 
Q 947 2381 947 1747 
z
" transform="scale(0.015625)"/>
       <path id="DejaVuSans-2d" d="M 313 2009 
L 1997 2009 
L 1997 1497 
L 313 1497 
L 313 2009 
z
" transform="scale(0.015625)"/>
       <path id="DejaVuSans-6c" d="M 603 4863 
L 1178 4863 
L 1178 0 
L 603 0 
L 603 4863 
z
" transform="scale(0.015625)"/>
      </defs>
      <use xlink:href="#DejaVuSans-66"/>
      <use xlink:href="#DejaVuSans-6f" x="35.205078"/>
      <use xlink:href="#DejaVuSans-72" x="96.386719"/>
      <use xlink:href="#DejaVuSans-65" x="135.25"/>
      <use xlink:href="#DejaVuSans-77" x="196.773438"/>
      <use xlink:href="#DejaVuSans-61" x="278.560547"/>
      <use xlink:href="#DejaVuSans-72" x="339.839844"/>
      <use xlink:href="#DejaVuSans-64" x="379.203125"/>
      <use xlink:href="#DejaVuSans-2d" x="442.679688"/>
      <use xlink:href="#DejaVuSans-6d" x="478.763672"/>
      <use xlink:href="#DejaVuSans-6f" x="576.175781"/>
      <use xlink:href="#DejaVuSans-64" x="637.357422"/>
      <use xlink:href="#DejaVuSans-65" x="700.833984"/>
      <use xlink:href="#DejaVuSans-6c" x="762.357422"/>
      <use xlink:href="#DejaVuSans-65" x="790.140625"/>
      <use xlink:href="#DejaVuSans-64" x="851.664062"/>
      <use xlink:href="#DejaVuSans-20" x="915.140625"/>
      <use xlink:href="#DejaVuSans-64" x="946.927734"/>
      <use xlink:href="#DejaVuSans-61" x="1010.404297"/>
      <use xlink:href="#DejaVuSans-74" x="1071.683594"/>
      <use xlink:href="#DejaVuSans-61" x="1110.892578"/>
     </g>
    </g>
    <g id="line2d_48">
     <path d="M 66.6 69.248563 
L 76.6 69.248563 
L 86.6 69.248563 
" style="fill: none; stroke: #ff7f0e; stroke-width: 1.5; stroke-linecap: square"/>
    </g>
    <g id="text_44">
     <!-- equilibrium values at each time point -->
     <g transform="translate(94.6 72.748563)scale(0.1 -0.1)">
      <defs>
       <path id="DejaVuSans-71" d="M 947 1747 
Q 947 1113 1208 752 
Q 1469 391 1925 391 
Q 2381 391 2643 752 
Q 2906 1113 2906 1747 
Q 2906 2381 2643 2742 
Q 2381 3103 1925 3103 
Q 1469 3103 1208 2742 
Q 947 2381 947 1747 
z
M 2906 525 
Q 2725 213 2448 61 
Q 2172 -91 1784 -91 
Q 1150 -91 751 415 
Q 353 922 353 1747 
Q 353 2572 751 3078 
Q 1150 3584 1784 3584 
Q 2172 3584 2448 3432 
Q 2725 3281 2906 2969 
L 2906 3500 
L 3481 3500 
L 3481 -1331 
L 2906 -1331 
L 2906 525 
z
" transform="scale(0.015625)"/>
       <path id="DejaVuSans-62" d="M 3116 1747 
Q 3116 2381 2855 2742 
Q 2594 3103 2138 3103 
Q 1681 3103 1420 2742 
Q 1159 2381 1159 1747 
Q 1159 1113 1420 752 
Q 1681 391 2138 391 
Q 2594 391 2855 752 
Q 3116 1113 3116 1747 
z
M 1159 2969 
Q 1341 3281 1617 3432 
Q 1894 3584 2278 3584 
Q 2916 3584 3314 3078 
Q 3713 2572 3713 1747 
Q 3713 922 3314 415 
Q 2916 -91 2278 -91 
Q 1894 -91 1617 61 
Q 1341 213 1159 525 
L 1159 0 
L 581 0 
L 581 4863 
L 1159 4863 
L 1159 2969 
z
" transform="scale(0.015625)"/>
       <path id="DejaVuSans-76" d="M 191 3500 
L 800 3500 
L 1894 563 
L 2988 3500 
L 3597 3500 
L 2284 0 
L 1503 0 
L 191 3500 
z
" transform="scale(0.015625)"/>
       <path id="DejaVuSans-73" d="M 2834 3397 
L 2834 2853 
Q 2591 2978 2328 3040 
Q 2066 3103 1784 3103 
Q 1356 3103 1142 2972 
Q 928 2841 928 2578 
Q 928 2378 1081 2264 
Q 1234 2150 1697 2047 
L 1894 2003 
Q 2506 1872 2764 1633 
Q 3022 1394 3022 966 
Q 3022 478 2636 193 
Q 2250 -91 1575 -91 
Q 1294 -91 989 -36 
Q 684 19 347 128 
L 347 722 
Q 666 556 975 473 
Q 1284 391 1588 391 
Q 1994 391 2212 530 
Q 2431 669 2431 922 
Q 2431 1156 2273 1281 
Q 2116 1406 1581 1522 
L 1381 1569 
Q 847 1681 609 1914 
Q 372 2147 372 2553 
Q 372 3047 722 3315 
Q 1072 3584 1716 3584 
Q 2034 3584 2315 3537 
Q 2597 3491 2834 3397 
z
" transform="scale(0.015625)"/>
       <path id="DejaVuSans-63" d="M 3122 3366 
L 3122 2828 
Q 2878 2963 2633 3030 
Q 2388 3097 2138 3097 
Q 1578 3097 1268 2742 
Q 959 2388 959 1747 
Q 959 1106 1268 751 
Q 1578 397 2138 397 
Q 2388 397 2633 464 
Q 2878 531 3122 666 
L 3122 134 
Q 2881 22 2623 -34 
Q 2366 -91 2075 -91 
Q 1284 -91 818 406 
Q 353 903 353 1747 
Q 353 2603 823 3093 
Q 1294 3584 2113 3584 
Q 2378 3584 2631 3529 
Q 2884 3475 3122 3366 
z
" transform="scale(0.015625)"/>
       <path id="DejaVuSans-68" d="M 3513 2113 
L 3513 0 
L 2938 0 
L 2938 2094 
Q 2938 2591 2744 2837 
Q 2550 3084 2163 3084 
Q 1697 3084 1428 2787 
Q 1159 2491 1159 1978 
L 1159 0 
L 581 0 
L 581 4863 
L 1159 4863 
L 1159 2956 
Q 1366 3272 1645 3428 
Q 1925 3584 2291 3584 
Q 2894 3584 3203 3211 
Q 3513 2838 3513 2113 
z
" transform="scale(0.015625)"/>
       <path id="DejaVuSans-6e" d="M 3513 2113 
L 3513 0 
L 2938 0 
L 2938 2094 
Q 2938 2591 2744 2837 
Q 2550 3084 2163 3084 
Q 1697 3084 1428 2787 
Q 1159 2491 1159 1978 
L 1159 0 
L 581 0 
L 581 3500 
L 1159 3500 
L 1159 2956 
Q 1366 3272 1645 3428 
Q 1925 3584 2291 3584 
Q 2894 3584 3203 3211 
Q 3513 2838 3513 2113 
z
" transform="scale(0.015625)"/>
      </defs>
      <use xlink:href="#DejaVuSans-65"/>
      <use xlink:href="#DejaVuSans-71" x="61.523438"/>
      <use xlink:href="#DejaVuSans-75" x="125"/>
      <use xlink:href="#DejaVuSans-69" x="188.378906"/>
      <use xlink:href="#DejaVuSans-6c" x="216.162109"/>
      <use xlink:href="#DejaVuSans-69" x="243.945312"/>
      <use xlink:href="#DejaVuSans-62" x="271.728516"/>
      <use xlink:href="#DejaVuSans-72" x="335.205078"/>
      <use xlink:href="#DejaVuSans-69" x="376.318359"/>
      <use xlink:href="#DejaVuSans-75" x="404.101562"/>
      <use xlink:href="#DejaVuSans-6d" x="467.480469"/>
      <use xlink:href="#DejaVuSans-20" x="564.892578"/>
      <use xlink:href="#DejaVuSans-76" x="596.679688"/>
      <use xlink:href="#DejaVuSans-61" x="655.859375"/>
      <use xlink:href="#DejaVuSans-6c" x="717.138672"/>
      <use xlink:href="#DejaVuSans-75" x="744.921875"/>
      <use xlink:href="#DejaVuSans-65" x="808.300781"/>
      <use xlink:href="#DejaVuSans-73" x="869.824219"/>
      <use xlink:href="#DejaVuSans-20" x="921.923828"/>
      <use xlink:href="#DejaVuSans-61" x="953.710938"/>
      <use xlink:href="#DejaVuSans-74" x="1014.990234"/>
      <use xlink:href="#DejaVuSans-20" x="1054.199219"/>
      <use xlink:href="#DejaVuSans-65" x="1085.986328"/>
      <use xlink:href="#DejaVuSans-61" x="1147.509766"/>
      <use xlink:href="#DejaVuSans-63" x="1208.789062"/>
      <use xlink:href="#DejaVuSans-68" x="1263.769531"/>
      <use xlink:href="#DejaVuSans-20" x="1327.148438"/>
      <use xlink:href="#DejaVuSans-74" x="1358.935547"/>
      <use xlink:href="#DejaVuSans-69" x="1398.144531"/>
      <use xlink:href="#DejaVuSans-6d" x="1425.927734"/>
      <use xlink:href="#DejaVuSans-65" x="1523.339844"/>
      <use xlink:href="#DejaVuSans-20" x="1584.863281"/>
      <use xlink:href="#DejaVuSans-70" x="1616.650391"/>
      <use xlink:href="#DejaVuSans-6f" x="1680.126953"/>
      <use xlink:href="#DejaVuSans-69" x="1741.308594"/>
      <use xlink:href="#DejaVuSans-6e" x="1769.091797"/>
      <use xlink:href="#DejaVuSans-74" x="1832.470703"/>
     </g>
    </g>
    <g id="LineCollection_3">
     <path d="M 71.6 83.926688 
L 81.6 83.926688 
" style="fill: none; stroke: #ff0000; stroke-width: 1.5"/>
    </g>
    <g id="LineCollection_4">
     <path d="M 76.6 88.926688 
L 76.6 78.926688 
" style="fill: none; stroke: #ff0000; stroke-width: 1.5"/>
    </g>
    <g id="line2d_49">
     <g>
      <use xlink:href="#m7c4daa043d" x="71.6" y="83.926688" style="fill: #ff0000; stroke: #ff0000"/>
     </g>
    </g>
    <g id="line2d_50">
     <g>
      <use xlink:href="#m7c4daa043d" x="81.6" y="83.926688" style="fill: #ff0000; stroke: #ff0000"/>
     </g>
    </g>
    <g id="line2d_51">
     <g>
      <use xlink:href="#meaa306c9af" x="76.6" y="88.926688" style="fill: #ff0000; stroke: #ff0000"/>
     </g>
    </g>
    <g id="line2d_52">
     <g>
      <use xlink:href="#meaa306c9af" x="76.6" y="78.926688" style="fill: #ff0000; stroke: #ff0000"/>
     </g>
    </g>
    <g id="line2d_53"/>
    <g id="line2d_54">
     <g>
      <use xlink:href="#md341dd6fc4" x="76.6" y="83.926688" style="fill: #ff0000; stroke: #ff0000"/>
     </g>
    </g>
    <g id="text_45">
     <!-- Dolomite Data -->
     <g transform="translate(94.6 87.426688)scale(0.1 -0.1)">
      <use xlink:href="#DejaVuSans-44"/>
      <use xlink:href="#DejaVuSans-6f" x="77.001953"/>
      <use xlink:href="#DejaVuSans-6c" x="138.183594"/>
      <use xlink:href="#DejaVuSans-6f" x="165.966797"/>
      <use xlink:href="#DejaVuSans-6d" x="227.148438"/>
      <use xlink:href="#DejaVuSans-69" x="324.560547"/>
      <use xlink:href="#DejaVuSans-74" x="352.34375"/>
      <use xlink:href="#DejaVuSans-65" x="391.552734"/>
      <use xlink:href="#DejaVuSans-20" x="453.076172"/>
      <use xlink:href="#DejaVuSans-44" x="484.863281"/>
      <use xlink:href="#DejaVuSans-61" x="561.865234"/>
      <use xlink:href="#DejaVuSans-74" x="623.144531"/>
      <use xlink:href="#DejaVuSans-61" x="662.353516"/>
     </g>
    </g>
   </g>
  </g>
 </g>
 <defs>
  <clipPath id="p3383a20e23">
   <rect x="57.6" y="41.472" width="357.12" height="266.112"/>
  </clipPath>
 </defs>
</svg>
